<svg width="149" height="24" viewBox="0 0 149 24" fill="none" xmlns="http://www.w3.org/2000/svg">
<path d="M10.823 13.2559L8.06263 8.38344H6.87959V13.2559H4.37012V0.75236H9.06642C10.0344 0.75236 10.8589 0.925522 11.54 1.27185C12.2212 1.60623 12.7291 2.066 13.0636 2.65117C13.4102 3.2244 13.5835 3.86928 13.5835 4.58581C13.5835 5.40983 13.3445 6.15621 12.8665 6.82498C12.3885 7.4818 11.6775 7.93561 10.7334 8.18639L13.7269 13.2559H10.823ZM6.87959 6.50254H8.97679C9.65794 6.50254 10.1658 6.34132 10.5004 6.01888C10.835 5.6845 11.0023 5.22472 11.0023 4.63955C11.0023 4.06633 10.835 3.62446 10.5004 3.31397C10.1658 2.99153 9.65794 2.83031 8.97679 2.83031H6.87959V6.50254Z" fill="white"/>
<path d="M25.0845 8.07891C25.0845 8.43718 25.0606 8.75962 25.0128 9.04623H17.7532C17.813 9.76277 18.0639 10.324 18.5061 10.7301C18.9482 11.1361 19.4919 11.3391 20.1372 11.3391C21.0693 11.3391 21.7325 10.9391 22.1269 10.1389H24.8335C24.5467 11.0943 23.997 11.8825 23.1844 12.5035C22.3719 13.1126 21.374 13.4171 20.191 13.4171C19.235 13.4171 18.3746 13.2081 17.6098 12.7901C16.857 12.3602 16.2655 11.7571 15.8353 10.9809C15.417 10.2046 15.2079 9.30896 15.2079 8.29387C15.2079 7.26684 15.417 6.3652 15.8353 5.58896C16.2535 4.81271 16.8391 4.2156 17.5919 3.79763C18.3447 3.37965 19.2111 3.17066 20.191 3.17066C21.135 3.17066 21.9775 3.37368 22.7184 3.77971C23.4712 4.18575 24.0508 4.76495 24.4571 5.51731C24.8753 6.25772 25.0845 7.11159 25.0845 8.07891ZM22.4854 7.36238C22.4734 6.7175 22.2404 6.20398 21.7863 5.82183C21.3322 5.42774 20.7765 5.23069 20.1193 5.23069C19.4979 5.23069 18.9721 5.42177 18.5419 5.80392C18.1237 6.17413 17.8668 6.69362 17.7712 7.36238H22.4854Z" fill="white"/>
<path d="M26.2709 8.25805C26.2709 7.2549 26.468 6.3652 26.8624 5.58896C27.2687 4.81271 27.8124 4.2156 28.4935 3.79763C29.1866 3.37965 29.9574 3.17066 30.8059 3.17066C31.5467 3.17066 32.192 3.31994 32.7417 3.61849C33.3034 3.91705 33.7515 4.29323 34.0861 4.74703V3.33188H36.6135V13.2559H34.0861V11.8049C33.7634 12.2706 33.3153 12.6588 32.7417 12.9693C32.1801 13.2678 31.5288 13.4171 30.7879 13.4171C29.9514 13.4171 29.1866 13.2021 28.4935 12.7722C27.8124 12.3423 27.2687 11.7392 26.8624 10.963C26.468 10.1748 26.2709 9.27313 26.2709 8.25805ZM34.0861 8.29387C34.0861 7.68482 33.9666 7.16533 33.7276 6.73541C33.4886 6.29355 33.1659 5.95917 32.7597 5.73227C32.3534 5.49342 31.9172 5.374 31.4511 5.374C30.9851 5.374 30.5549 5.48745 30.1606 5.71435C29.7662 5.94126 29.4436 6.27564 29.1926 6.7175C28.9536 7.14742 28.8341 7.66093 28.8341 8.25805C28.8341 8.85516 28.9536 9.38062 29.1926 9.83442C29.4436 10.2763 29.7662 10.6166 30.1606 10.8555C30.5669 11.0943 30.997 11.2137 31.4511 11.2137C31.9172 11.2137 32.3534 11.1003 32.7597 10.8734C33.1659 10.6345 33.4886 10.3002 33.7276 9.87025C33.9666 9.42838 34.0861 8.90293 34.0861 8.29387Z" fill="white"/>
<path d="M38.4191 8.25805C38.4191 7.2549 38.6163 6.3652 39.0107 5.58896C39.4169 4.81271 39.9666 4.2156 40.6597 3.79763C41.3528 3.37965 42.1236 3.17066 42.972 3.17066C43.6173 3.17066 44.2327 3.31397 44.8183 3.60058C45.4038 3.87525 45.8699 4.24546 46.2164 4.71121V0H48.7617V13.2559H46.2164V11.787C45.9057 12.2766 45.4696 12.6707 44.9079 12.9693C44.3463 13.2678 43.695 13.4171 42.9541 13.4171C42.1176 13.4171 41.3528 13.2021 40.6597 12.7722C39.9666 12.3423 39.4169 11.7392 39.0107 10.963C38.6163 10.1748 38.4191 9.27313 38.4191 8.25805ZM46.2343 8.29387C46.2343 7.68482 46.1148 7.16533 45.8759 6.73541C45.6369 6.29355 45.3142 5.95917 44.9079 5.73227C44.5016 5.49342 44.0654 5.374 43.5994 5.374C43.1334 5.374 42.7032 5.48745 42.3088 5.71435C41.9145 5.94126 41.5918 6.27564 41.3409 6.7175C41.1019 7.14742 40.9824 7.66093 40.9824 8.25805C40.9824 8.85516 41.1019 9.38062 41.3409 9.83442C41.5918 10.2763 41.9145 10.6166 42.3088 10.8555C42.7151 11.0943 43.1453 11.2137 43.5994 11.2137C44.0654 11.2137 44.5016 11.1003 44.9079 10.8734C45.3142 10.6345 45.6369 10.3002 45.8759 9.87025C46.1148 9.42838 46.2343 8.90293 46.2343 8.29387Z" fill="white"/>
<path d="M60.7128 3.33188L54.5646 17.9492H51.8938L54.0448 13.0051L50.0655 3.33188H52.8797L55.4429 10.2643L58.042 3.33188H60.7128Z" fill="white"/>
<path d="M70.6566 13.3813C69.7843 13.3813 68.9956 13.232 68.2905 12.9334C67.5975 12.6349 67.0478 12.2049 66.6415 11.6437C66.2352 11.0824 66.026 10.4196 66.0141 9.65529H68.7028C68.7387 10.1688 68.9179 10.5748 69.2406 10.8734C69.5752 11.1719 70.0293 11.3212 70.6028 11.3212C71.1884 11.3212 71.6485 11.1839 71.9831 10.9092C72.3176 10.6226 72.485 10.2524 72.485 9.79859C72.485 9.42838 72.3714 9.12386 72.1444 8.88501C71.9173 8.64617 71.6305 8.46106 71.284 8.3297C70.9494 8.18639 70.4834 8.03114 69.8859 7.86395C69.0733 7.62511 68.41 7.39223 67.8962 7.16533C67.3943 6.92649 66.9581 6.57419 66.5877 6.10845C66.2292 5.63076 66.0499 4.99782 66.0499 4.20963C66.0499 3.46922 66.2352 2.82433 66.6056 2.27499C66.9761 1.72565 67.4959 1.30767 68.1651 1.02106C68.8343 0.722504 69.5991 0.573227 70.4594 0.573227C71.75 0.573227 72.7956 0.889695 73.5963 1.52263C74.4089 2.14363 74.857 3.01541 74.9406 4.13798H72.1802C72.1563 3.70806 71.9711 3.35576 71.6246 3.08109C71.29 2.79448 70.8418 2.65117 70.2802 2.65117C69.7903 2.65117 69.3959 2.77657 69.0972 3.02735C68.8104 3.27814 68.667 3.64238 68.667 4.12007C68.667 4.45445 68.7745 4.73509 68.9896 4.96199C69.2167 5.17695 69.4915 5.35609 69.8142 5.49939C70.1488 5.63076 70.6148 5.78601 71.2123 5.96514C72.0249 6.20398 72.6881 6.44283 73.2019 6.68167C73.7158 6.92052 74.1579 7.27878 74.5284 7.75647C74.8988 8.23416 75.0841 8.86113 75.0841 9.63737C75.0841 10.3061 74.9108 10.9271 74.5642 11.5004C74.2177 12.0736 73.7098 12.5334 73.0406 12.8797C72.3714 13.2141 71.5768 13.3813 70.6566 13.3813Z" fill="white"/>
<path d="M86.491 8.07891C86.491 8.43718 86.467 8.75962 86.4192 9.04623H79.1597C79.2195 9.76277 79.4704 10.324 79.9125 10.7301C80.3547 11.1361 80.8984 11.3391 81.5437 11.3391C82.4758 11.3391 83.139 10.9391 83.5334 10.1389H86.24C85.9532 11.0943 85.4035 11.8825 84.5909 12.5035C83.7783 13.1126 82.7805 13.4171 81.5975 13.4171C80.6415 13.4171 79.7811 13.2081 79.0163 12.7901C78.2635 12.3602 77.6719 11.7571 77.2417 10.9809C76.8235 10.2046 76.6144 9.30896 76.6144 8.29387C76.6144 7.26684 76.8235 6.3652 77.2417 5.58896C77.66 4.81271 78.2455 4.2156 78.9984 3.79763C79.7512 3.37965 80.6176 3.17066 81.5975 3.17066C82.5415 3.17066 83.384 3.37368 84.1249 3.77971C84.8777 4.18575 85.4573 4.76495 85.8636 5.51731C86.2818 6.25772 86.491 7.11159 86.491 8.07891ZM83.8918 7.36238C83.8799 6.7175 83.6469 6.20398 83.1928 5.82183C82.7387 5.42774 82.183 5.23069 81.5258 5.23069C80.9044 5.23069 80.3786 5.42177 79.9484 5.80392C79.5301 6.17413 79.2732 6.69362 79.1776 7.36238H83.8918Z" fill="white"/>
<path d="M91.2444 5.39191V10.1927C91.2444 10.5271 91.3221 10.7719 91.4774 10.9271C91.6447 11.0704 91.9196 11.1421 92.3019 11.1421H93.4671V13.2559H91.8897C89.7746 13.2559 88.717 12.2288 88.717 10.1748V5.39191H87.534V3.33188H88.717V0.877753H91.2444V3.33188H93.4671V5.39191H91.2444Z" fill="white"/>
<path d="M108.255 4.51416C107.968 3.9887 107.573 3.58864 107.072 3.31397C106.57 3.0393 105.984 2.90196 105.315 2.90196C104.574 2.90196 103.917 3.06915 103.343 3.40353C102.77 3.73792 102.321 4.2156 101.999 4.8366C101.676 5.45759 101.515 6.17413 101.515 6.9862C101.515 7.82215 101.676 8.55063 101.999 9.17163C102.333 9.79262 102.794 10.2703 103.379 10.6047C103.965 10.9391 104.646 11.1063 105.422 11.1063C106.378 11.1063 107.161 10.8555 107.771 10.3539C108.38 9.84039 108.78 9.12983 108.972 8.22222H104.67V6.30549H111.445V8.49092C111.278 9.3627 110.919 10.1688 110.37 10.9092C109.82 11.6496 109.109 12.2467 108.237 12.7006C107.376 13.1424 106.408 13.3633 105.333 13.3633C104.126 13.3633 103.033 13.0946 102.053 12.5572C101.085 12.0079 100.32 11.2496 99.7582 10.2823C99.2086 9.31493 98.9337 8.21625 98.9337 6.9862C98.9337 5.75615 99.2086 4.65747 99.7582 3.69015C100.32 2.71088 101.085 1.95255 102.053 1.41515C103.033 0.865811 104.12 0.59114 105.315 0.59114C106.725 0.59114 107.95 0.937464 108.99 1.63011C110.029 2.31082 110.746 3.27217 111.14 4.51416H108.255Z" fill="white"/>
<path d="M115.811 4.87243C116.134 4.34697 116.552 3.93496 117.066 3.63641C117.592 3.33785 118.189 3.18857 118.859 3.18857V5.82183H118.195C117.407 5.82183 116.809 6.00694 116.403 6.37715C116.008 6.74735 115.811 7.39223 115.811 8.31179V13.2559H113.302V3.33188H115.811V4.87243Z" fill="white"/>
<path d="M124.958 13.4171C124.002 13.4171 123.142 13.2081 122.377 12.7901C121.612 12.3602 121.009 11.7571 120.567 10.9809C120.137 10.2046 119.921 9.30896 119.921 8.29387C119.921 7.27878 120.142 6.38312 120.585 5.60687C121.039 4.83063 121.654 4.23352 122.431 3.81554C123.208 3.38562 124.074 3.17066 125.03 3.17066C125.986 3.17066 126.852 3.38562 127.629 3.81554C128.406 4.23352 129.015 4.83063 129.457 5.60687C129.912 6.38312 130.139 7.27878 130.139 8.29387C130.139 9.30896 129.906 10.2046 129.439 10.9809C128.985 11.7571 128.364 12.3602 127.575 12.7901C126.799 13.2081 125.926 13.4171 124.958 13.4171ZM124.958 11.2317C125.412 11.2317 125.837 11.1242 126.231 10.9092C126.637 10.6823 126.96 10.3479 127.199 9.90607C127.438 9.46421 127.557 8.92681 127.557 8.29387C127.557 7.35044 127.306 6.62793 126.805 6.12636C126.315 5.61284 125.711 5.35609 124.994 5.35609C124.277 5.35609 123.674 5.61284 123.184 6.12636C122.706 6.62793 122.467 7.35044 122.467 8.29387C122.467 9.23731 122.7 9.96578 123.166 10.4793C123.644 10.9809 124.241 11.2317 124.958 11.2317Z" fill="white"/>
<path d="M145.746 3.33188L142.842 13.2559H140.135L138.325 6.32341L136.514 13.2559H133.79L130.868 3.33188H133.413L135.17 10.8913L137.07 3.33188H139.723L141.587 10.8734L143.344 3.33188H145.746Z" fill="white"/>
<path d="M137.457 21.9951C137.177 22.0321 136.922 22.0321 136.642 22.0876L136.642 22.106C136.515 22.0321 136.362 21.9951 136.183 21.9766C135.725 21.9397 135.241 21.9027 134.782 21.8657C134.731 21.8657 134.706 21.8842 134.731 21.9212C134.731 21.9397 134.757 21.9581 134.757 21.9581C135.011 22.0321 135.292 22.106 135.572 22.1615C135.648 22.18 135.725 22.1985 135.801 22.1985C136.285 22.1615 136.769 22.3094 137.254 22.3464C137.356 22.3464 137.457 22.3834 137.559 22.3834C138.094 22.3649 138.604 22.4573 139.139 22.5313C139.292 22.5498 139.419 22.5682 139.572 22.5682C140.031 22.5498 140.464 22.6237 140.897 22.7161C140.897 22.7161 140.923 22.7346 140.923 22.7531C140.642 22.8086 140.362 22.7716 140.082 22.7346C139.521 22.6422 138.961 22.6237 138.375 22.6052C138.222 22.6052 138.094 22.6052 137.942 22.5867C137.483 22.4943 137.024 22.4758 136.54 22.4573C136.489 22.4573 136.464 22.4758 136.464 22.4943C136.464 22.5128 136.489 22.5313 136.489 22.5313C136.795 22.6237 137.101 22.6977 137.432 22.6792C137.61 22.6792 137.789 22.6792 137.993 22.6792C138.196 22.6792 138.4 22.7161 138.528 22.8456C138.655 22.975 138.782 22.975 138.935 22.938C139.139 22.8825 139.343 22.8825 139.521 22.8456C139.674 22.8271 139.853 22.8271 140.005 22.8825C140.158 22.938 140.311 22.938 140.49 22.938C140.566 22.938 140.642 22.9565 140.693 23.0119C140.719 23.0489 140.77 23.0859 140.795 23.1044C141.05 23.1968 141.305 23.2893 141.611 23.2893C141.84 23.2893 142.044 23.3262 142.273 23.3632C142.655 23.4187 143.038 23.4741 143.42 23.4926C143.726 23.5111 144.031 23.5666 144.312 23.6035C144.439 23.622 144.541 23.6405 144.668 23.6405C145.407 23.659 146.121 23.8254 146.834 23.8624C146.86 23.8624 146.885 23.9178 146.885 23.9363C146.885 23.9548 146.834 23.9733 146.809 23.9918C146.783 23.9918 146.732 24.0103 146.681 23.9918C146.452 23.9733 146.223 23.9733 146.019 23.9548C145.535 23.9178 145.051 23.8624 144.566 23.8254C144.108 23.7884 143.624 23.7514 143.165 23.696C142.885 23.6775 142.604 23.659 142.324 23.6405C142.222 23.6405 142.12 23.6405 142.018 23.6035C141.713 23.5296 141.381 23.5296 141.05 23.5296C140.388 23.5296 139.751 23.4741 139.088 23.4372C138.986 23.4372 138.884 23.4187 138.782 23.4187C138.579 23.4187 138.375 23.4002 138.171 23.3632C137.916 23.3077 137.661 23.2893 137.381 23.2708C136.948 23.2523 136.54 23.2338 136.107 23.1968C135.699 23.1598 135.292 23.1044 134.909 23.0674C134.553 23.0304 134.17 23.0119 133.814 22.9935C133.483 22.975 133.177 22.9565 132.846 22.9195C132.54 22.8825 132.234 22.864 131.928 22.8456C130.96 22.7716 129.992 22.7161 128.998 22.6422C128.565 22.6052 128.157 22.5682 127.724 22.5313C127.112 22.4943 126.501 22.4573 125.889 22.4018C125.125 22.3464 124.361 22.2909 123.571 22.2724C123.112 22.2724 122.679 22.217 122.246 22.1615C122.016 22.143 121.813 22.1245 121.583 22.106C121.15 22.0876 120.742 22.0691 120.309 22.0321C120.156 22.0321 120.029 22.0136 119.876 22.0136C119.519 22.0321 119.137 21.9951 118.78 21.9581C118.449 21.9212 118.143 21.9212 117.812 21.9027C117.252 21.8842 116.666 21.8472 116.105 21.8287C115.952 21.8287 115.774 21.8287 115.621 21.8102C115.086 21.7548 114.525 21.7363 113.965 21.7363C113.786 21.7363 113.608 21.7178 113.404 21.7178C112.869 21.6808 112.359 21.6439 111.824 21.6439C111.646 21.6439 111.468 21.6439 111.264 21.6254C110.78 21.5699 110.295 21.5884 109.811 21.5699C109.353 21.5514 108.92 21.5329 108.461 21.5144C108.13 21.496 107.798 21.496 107.493 21.4775C107.034 21.459 106.601 21.4405 106.142 21.422C106.015 21.422 105.887 21.4035 105.785 21.4035C105.148 21.4405 104.511 21.385 103.9 21.385C103.543 21.385 103.161 21.3481 102.804 21.3481C102.142 21.3296 101.454 21.3111 100.791 21.2926C100.333 21.2741 99.8996 21.2741 99.4409 21.2556C99.1861 21.2371 98.9058 21.2371 98.651 21.2556C98.5236 21.2741 98.3962 21.2741 98.2943 21.2556C98.0395 21.2186 97.7592 21.2186 97.5044 21.2186C96.9438 21.2002 96.3578 21.1817 95.7972 21.1817C95.6953 21.1817 95.5934 21.1632 95.4915 21.1632C94.9819 21.2002 94.4723 21.1632 93.9627 21.1632C93.3766 21.1632 92.7906 21.1817 92.179 21.1817C91.7968 21.1817 91.4146 21.1632 91.007 21.1632C90.8541 21.1632 90.6757 21.1447 90.5228 21.1632C90.1661 21.2002 89.8349 21.1817 89.4781 21.1632C89.0195 21.1447 88.5863 21.1077 88.1277 21.1632C88.0767 21.1632 88.0003 21.1632 87.9493 21.1632C87.083 21.1077 86.1912 21.1632 85.3249 21.1447C84.5095 21.1262 83.6941 21.1262 82.8788 21.1262C82.3182 21.1262 81.7321 21.1632 81.1716 21.1262C80.1269 21.1632 79.0822 21.1262 78.063 21.1817C77.4005 21.2186 76.7125 21.2002 76.05 21.2002C75.7952 21.2002 75.515 21.2002 75.2602 21.2002C74.5977 21.2002 73.9097 21.2186 73.2472 21.2371C72.7376 21.2371 72.228 21.2371 71.7184 21.2556C70.8011 21.2926 69.8838 21.2926 68.9665 21.2926C68.7117 21.2926 68.4314 21.2926 68.1766 21.3111C67.2848 21.3296 66.393 21.3481 65.4757 21.3296C65.3229 21.3296 65.1445 21.3296 64.9916 21.3481C64.1508 21.4035 63.2844 21.4035 62.4181 21.422C61.7556 21.4405 61.1186 21.4405 60.4561 21.459C60.1758 21.459 59.8956 21.4775 59.6153 21.385C59.5388 21.3665 59.4369 21.3665 59.386 21.385C59.0802 21.496 58.749 21.496 58.4177 21.496C57.6533 21.5144 56.9144 21.5144 56.15 21.5329C55.7678 21.5329 55.3856 21.5514 55.0034 21.5699C54.876 21.5699 54.7486 21.5699 54.6466 21.5884C54.3918 21.5884 54.2135 21.5329 54.188 21.3296C54.188 21.3296 54.1116 21.3111 54.0861 21.3111C54.0606 21.3111 54.0606 21.3296 54.0351 21.3481C53.9841 21.5514 53.8058 21.6069 53.551 21.6069C52.9904 21.6069 52.4553 21.6254 51.8948 21.6439C50.7227 21.6808 49.5761 21.7178 48.404 21.7178C48.0473 21.7178 47.665 21.7548 47.3083 21.7548C46.5184 21.7733 45.7285 21.7918 44.9132 21.8102C44.7858 21.8102 44.6584 21.8102 44.5565 21.8287C43.843 21.8842 43.1296 21.8842 42.4161 21.8842C41.5753 21.9027 40.7344 21.9397 39.919 21.9581C39.6388 21.9581 39.3585 21.9766 39.0527 21.9766C38.1864 21.9951 37.2946 22.0136 36.4283 22.0506C36.1735 22.0506 35.8932 22.0876 35.6384 22.106C35.0014 22.143 34.3644 22.106 33.7528 22.1245C33.498 22.143 33.2687 22.143 33.0139 22.106C32.912 22.0876 32.8101 22.0876 32.7081 22.106C32.0966 22.1615 31.4851 22.106 30.8736 22.1245C30.2875 22.143 29.7015 22.1245 29.0899 22.143C28.5039 22.143 27.9179 22.1615 27.3063 22.18C27.128 22.18 26.9241 22.18 26.7712 22.217C26.5419 22.2539 26.3381 22.3094 26.1088 22.2724C25.8794 22.2539 25.6756 22.2909 25.4463 22.2355C25.3444 22.1985 25.1915 22.217 25.0895 22.2355C24.478 22.3279 23.841 22.3094 23.204 22.3094C22.4396 22.3094 21.7007 22.3094 20.9363 22.3094C20.4267 22.3094 19.9171 22.3094 19.4074 22.3094C18.6685 22.2909 17.9296 22.3279 17.2161 22.2724C17.1397 22.2724 17.0633 22.2724 16.9613 22.2724C16.3498 22.3464 15.7383 22.2724 15.1268 22.2539C14.9739 22.2539 14.7955 22.2355 14.6426 22.2355C14.1076 22.2539 13.5725 22.2355 13.0629 22.2355C12.8845 22.2355 12.7061 22.2355 12.5023 22.2355C12.3239 22.2355 12.1456 22.2355 11.9417 22.2355C11.4831 22.1985 10.999 22.1985 10.5403 22.1985C10.1072 22.18 9.67399 22.18 9.26631 22.1615C8.57834 22.143 7.89038 22.106 7.20241 22.0876C6.28512 22.0506 5.36784 22.0321 4.45055 21.9766C3.71162 21.9397 2.94722 21.8657 2.20829 21.8102C1.92801 21.7918 1.64771 21.7178 1.36743 21.6808C1.0107 21.6254 0.730434 21.4959 0.424671 21.3665C0.27179 21.3111 0.169859 21.2001 0.144379 21.0892C0.0934185 20.9413 0.042458 20.7934 0.0169777 20.664C-0.00850252 20.3867 -0.0339734 20.1094 0.169869 19.8505C0.195349 19.7951 0.220826 19.7396 0.246306 19.6842C0.348227 19.4438 0.526586 19.2774 0.832349 19.148C1.01071 19.0741 1.18907 19.0186 1.41839 19.0371C1.67319 19.0371 1.95349 19.0556 2.20829 19.0556C2.33569 19.0556 2.46308 19.0556 2.565 19.0371C2.84529 18.9631 3.12557 18.9816 3.40585 19.0001C3.55873 19.0186 3.7371 19.0186 3.88998 19.0186C4.04286 19.0186 4.22123 19.0186 4.37411 18.9631C4.60343 18.8707 4.83275 18.8522 5.08755 18.8707C5.87744 18.8892 6.66732 18.8707 7.48269 18.9077C7.96681 18.9262 8.45094 18.9077 8.93507 18.9262C9.18987 18.9262 9.47016 18.9447 9.72496 18.9447C10.0817 18.9447 10.4129 18.9631 10.7696 18.9631C11.5341 18.9816 12.3239 18.9447 13.0883 19.0186C13.1138 19.0186 13.1393 19.0186 13.1393 19.0186C13.2412 19.0186 13.3177 18.9816 13.3431 18.8892C13.3431 18.8152 13.4196 18.7968 13.496 18.7783C13.547 18.7783 13.6234 18.7598 13.6744 18.7783C14.133 18.8152 14.6172 18.8152 15.0758 18.8152C15.509 18.8152 15.9167 18.8707 16.3498 18.8337C16.4517 18.8337 16.5537 18.8337 16.6556 18.8152C16.8849 18.7413 17.1397 18.7598 17.369 18.7968C17.5474 18.8152 17.7258 18.8152 17.9041 18.7968C18.108 18.7783 18.3118 18.7783 18.5156 18.7783C18.6176 18.7783 18.7195 18.7783 18.8214 18.7968C19.1526 18.8892 19.4839 18.8707 19.8406 18.8707C20.3247 18.8522 20.8089 18.8707 21.3185 18.8892C21.3439 18.8892 21.3694 18.8892 21.3694 18.9077C21.3949 18.9447 21.3694 18.9631 21.3185 18.9631C21.2675 18.9816 21.1911 18.9816 21.1401 19.0001C21.1401 19.0001 21.1146 19.0186 21.1146 19.0371C21.1146 19.0556 21.1146 19.0741 21.1401 19.0741C21.1656 19.0926 21.2166 19.111 21.242 19.111C21.4204 19.111 21.5988 19.111 21.7771 19.111C21.8536 19.111 21.93 19.0741 21.9555 19.0186C22.0319 18.8522 22.2103 18.7968 22.4141 18.7783C22.7454 18.7598 23.0511 18.7228 23.3824 18.7598C23.5098 18.7783 23.6372 18.7783 23.7391 18.7598C23.892 18.7413 24.0703 18.7413 24.2232 18.7783C24.2997 18.7968 24.3761 18.7968 24.478 18.7783C24.6564 18.7598 24.8347 18.7413 25.0131 18.7783C25.0895 18.7968 25.166 18.7783 25.2424 18.7598C25.3698 18.7598 25.4972 18.7228 25.5992 18.7413C26.1597 18.7968 26.6948 18.7228 27.2554 18.7413C28.3255 18.7598 29.3702 18.6858 30.4404 18.7228C30.4914 18.7228 30.5678 18.7228 30.6188 18.7228C31.8163 18.6489 33.0139 18.6673 34.2115 18.6304C34.5172 18.6304 34.823 18.6119 35.1288 18.6304C35.409 18.6489 35.6893 18.6304 35.9696 18.5934C36.1989 18.5749 36.4028 18.5564 36.6321 18.5564C37.371 18.5379 38.11 18.5194 38.8234 18.4825C38.9763 18.4825 39.1037 18.4825 39.2566 18.4825C39.3585 18.4825 39.4604 18.501 39.5623 18.4825C40.1229 18.427 40.7089 18.4455 41.2695 18.4455C41.5243 18.4455 41.8046 18.4455 42.0594 18.427C42.3652 18.4085 42.6709 18.39 42.9767 18.4085C43.0531 18.4085 43.1296 18.4085 43.2315 18.4085C43.5372 18.39 43.843 18.3715 44.1488 18.3715C44.4545 18.3531 44.7603 18.3531 45.0661 18.2976C45.2189 18.2606 45.3973 18.2421 45.5502 18.2791C45.8814 18.3346 46.1872 18.2976 46.5184 18.2976C46.8497 18.2976 47.1809 18.2976 47.4867 18.2976C48.0473 18.2791 48.5823 18.2606 49.1429 18.2606C49.3467 18.2606 49.5506 18.2421 49.7544 18.2976C49.7799 18.2976 49.7799 18.3161 49.7799 18.3346C49.7799 18.3531 49.7799 18.3715 49.7799 18.3715C49.7544 18.39 49.729 18.4085 49.678 18.427C49.4741 18.464 49.2703 18.464 49.0665 18.4455C48.6078 18.427 48.1237 18.4825 47.665 18.4085C47.3848 18.427 47.1045 18.464 46.8242 18.4825C46.6713 18.501 46.5184 18.5194 46.391 18.501C46.1362 18.4455 45.9069 18.4825 45.6776 18.5194C45.5502 18.5379 45.4228 18.5379 45.3209 18.5379C44.8622 18.5379 44.4291 18.5564 43.9704 18.5564C43.8685 18.5564 43.7666 18.5379 43.6646 18.5379C43.4098 18.5194 43.1296 18.5194 42.8748 18.5564C42.6964 18.5934 42.518 18.5934 42.3397 18.5934C41.7791 18.5564 41.1931 18.6119 40.6325 18.6119C40.5051 18.6119 40.3777 18.6304 40.2758 18.6489C39.97 18.7228 39.6388 18.7228 39.3075 18.7228C39.0782 18.7228 38.8489 18.7228 38.645 18.7228C38.5686 18.7228 38.4922 18.7413 38.3902 18.7413C38.4412 18.7598 38.4667 18.7968 38.4922 18.7968C38.8998 18.7968 39.3075 18.7968 39.7152 18.7968C39.9955 18.7968 40.2758 18.7968 40.6325 18.8152C40.3013 18.9631 40.021 19.0371 39.7152 19.0001C39.4604 18.9631 39.1801 18.9631 38.9253 19.0186C38.7215 19.0556 38.5176 19.0371 38.3138 19.0186C38.1354 19.0001 37.9571 19.0001 37.7787 19.0371C37.5749 19.0926 37.371 19.0926 37.1672 19.0371C36.8869 18.9816 36.6066 18.9816 36.3263 19.0186C36.0461 19.0371 35.7658 19.0556 35.4855 19.0556C35.1288 19.0371 34.7466 19.0556 34.3898 19.0926C33.9567 19.1295 33.549 19.1665 33.1158 19.111C33.0139 19.0926 32.912 19.111 32.8101 19.111C32.3514 19.148 31.8673 19.185 31.4086 19.185C31.2558 19.185 31.1284 19.2035 31.0264 19.2959C30.6442 19.2774 30.6442 19.2774 30.4914 19.3329C30.6697 19.3699 30.8481 19.3514 31.001 19.2959C31.1029 19.3329 31.2303 19.3699 31.3577 19.3699C32.0711 19.3329 32.7846 19.3699 33.498 19.3699C34.186 19.3699 34.874 19.3514 35.5619 19.3144C35.8167 19.2959 36.0461 19.2959 36.3009 19.2959C36.5557 19.2959 36.785 19.2774 37.0398 19.2774C37.3455 19.2589 37.6513 19.2405 37.9571 19.2589C38.1354 19.2589 38.3138 19.2405 38.5176 19.2405C38.7724 19.2405 39.0018 19.2035 39.2566 19.2405C39.3585 19.2589 39.4604 19.2405 39.5623 19.2405C39.9445 19.2035 40.3267 19.185 40.7089 19.2035C40.9128 19.2035 41.1166 19.2035 41.3205 19.2035C41.4988 19.2035 41.6772 19.2035 41.881 19.2035C42.0594 19.2035 42.1868 19.2774 42.2632 19.3884C42.2632 19.4068 42.2887 19.4068 42.3142 19.4253C42.3397 19.4253 42.3652 19.4438 42.3652 19.4253C42.5435 19.3884 42.6964 19.3329 42.8748 19.2959C42.9257 19.2774 42.9002 19.2405 42.8748 19.222C42.8238 19.2035 42.7983 19.1665 42.8493 19.1665C43.0786 19.148 43.3079 19.148 43.5118 19.148C43.792 19.148 44.0723 19.148 44.3526 19.111C44.5565 19.0926 44.7603 19.0926 44.9641 19.0926C45.0915 19.0926 45.2189 19.0741 45.2954 19.0186C45.3209 19.0001 45.3463 18.9631 45.3463 18.9447C45.3463 18.9262 45.3209 18.8892 45.2954 18.8707C45.2699 18.8522 45.2189 18.8522 45.168 18.8522C45.0151 18.8522 44.8877 18.8522 44.7348 18.8707C44.4291 18.8892 44.1233 18.9447 43.8175 18.9447C43.5373 18.9631 43.257 18.9447 42.9767 18.9262C42.7219 18.9077 42.4416 18.9077 42.1868 18.9447C41.932 18.9816 41.6517 18.9631 41.3969 18.9447C41.3714 18.9447 41.3459 18.9262 41.3459 18.9077C41.3714 18.8892 41.3714 18.8522 41.3969 18.8522C41.4988 18.8337 41.6007 18.8152 41.7027 18.8152C42.2123 18.7968 42.7219 18.7968 43.2315 18.7968C43.894 18.7968 44.531 18.7783 45.1935 18.7783C45.5757 18.7783 45.9579 18.7783 46.3401 18.7043C46.5439 18.6673 46.6968 18.7598 46.8752 18.7783C46.9261 18.7783 46.9516 18.8152 46.9261 18.8522C46.9261 18.8707 46.9006 18.8892 46.8752 18.8892C46.7987 18.9077 46.7223 18.9262 46.6458 18.9262C46.442 18.9077 46.2382 18.8707 46.0343 18.9077C45.9833 18.9077 45.9069 18.9262 45.8814 18.9816C45.8559 19.0186 45.9324 19.0556 46.0088 19.0741C46.0598 19.0741 46.0853 19.0741 46.1362 19.0741C46.1872 19.0741 46.2127 19.0741 46.2636 19.0741C46.8242 19.0741 47.4102 19.0926 47.9708 19.0926C48.0218 19.0926 48.0473 19.0926 48.0982 19.111C48.1237 19.1295 48.1746 19.148 48.1746 19.1665C48.1746 19.185 48.1492 19.222 48.1237 19.2405C48.0982 19.2774 48.0473 19.2959 47.9708 19.3514C48.0982 19.3514 48.1747 19.3514 48.2511 19.3514C48.353 19.3699 48.4549 19.3329 48.5059 19.2774C48.6588 19.0926 48.9136 19.0371 49.1684 19.0001C49.4996 18.9631 49.8564 18.9077 50.1876 18.9816C50.3405 19.0186 50.5188 19.0001 50.6717 19.0001C51.003 19.0001 51.3342 18.9816 51.64 18.9631C51.8183 18.9631 51.9967 18.9816 52.1751 19.0186C52.3789 19.0741 52.5573 19.0741 52.7611 19.0001C52.8375 18.9631 52.9649 18.9447 53.0414 18.9631C53.2452 18.9816 53.4491 18.9447 53.6529 18.9077C53.7803 18.8892 53.9332 18.8892 54.0606 18.9447C53.9587 19.0556 53.8058 19.0926 53.6529 19.111C53.551 19.1295 53.4491 19.1295 53.3471 19.148C53.3217 19.148 53.3217 19.185 53.2962 19.2035C53.2962 19.2035 53.3217 19.222 53.3471 19.222C53.6019 19.2589 53.8313 19.2589 54.0606 19.2035C54.1625 19.185 54.2135 19.0926 54.1625 19.0186C54.137 18.9816 54.0861 18.9447 54.0606 18.9077C54.188 18.9262 54.3409 18.9447 54.4683 18.9631C54.5447 18.9816 54.6212 18.9447 54.6721 18.9077C54.6976 18.9262 54.7231 18.9447 54.7486 18.9631C54.9014 19.0556 55.0798 19.0741 55.2582 19.0001C55.3856 18.9262 55.5384 18.8892 55.7168 18.8892C56.1754 18.8522 56.6086 18.8707 57.0673 18.8707C57.2711 18.8707 57.373 18.9077 57.3985 19.0556C57.3985 19.0926 57.4495 19.0926 57.5004 19.0741C57.5259 19.0556 57.5769 19.0371 57.5769 19.0001C57.6788 18.8337 57.8317 18.7968 58.061 18.7968C58.2394 18.7968 58.3668 18.8522 58.4177 18.9816C58.4432 19.0371 58.5196 19.0371 58.5706 19.0001C58.7235 18.8337 58.9273 18.7783 59.1821 18.7783C59.5134 18.7783 59.8446 18.7598 60.1504 18.7598C60.2013 18.7598 60.2778 18.7598 60.3287 18.7598C60.4561 18.7783 60.5581 18.8152 60.609 18.9077C60.6345 18.9447 60.66 18.9816 60.7364 18.9816C60.8129 18.9816 60.8383 18.9447 60.8638 18.9077C60.8893 18.8707 60.8893 18.8152 60.9148 18.7783C60.9403 18.7413 60.9912 18.6858 61.0422 18.6858C61.2715 18.6673 61.5263 18.6304 61.7556 18.6858C62.0869 18.7598 62.3926 18.7598 62.7239 18.6858C62.9022 18.6489 63.0806 18.6304 63.259 18.6489C63.5902 18.6673 63.9214 18.6673 64.2272 18.6673C64.431 18.6673 64.6349 18.6489 64.8387 18.6304C64.9152 18.6304 64.9661 18.5749 64.9152 18.501C64.9152 18.464 64.8897 18.4455 64.8642 18.427C64.8642 18.3715 64.8642 18.3346 64.9407 18.3161C65.0171 18.2976 65.0935 18.2606 65.17 18.2606C65.3483 18.2421 65.5267 18.2606 65.7305 18.2606C65.8325 18.2606 65.9344 18.2791 66.0363 18.2606C66.3166 18.2052 66.5714 18.2421 66.7752 18.3531C66.6988 18.3715 66.5969 18.3531 66.4695 18.3531C66.3421 18.3531 66.2147 18.3531 66.1128 18.3715C65.9854 18.3715 65.8579 18.39 65.756 18.39C65.6286 18.4085 65.5522 18.464 65.5522 18.5194C65.5522 18.5749 65.6286 18.6489 65.756 18.6489C66.0618 18.6489 66.3675 18.6489 66.6733 18.6489C66.6988 18.6489 66.7498 18.6673 66.7752 18.6858L66.7752 18.7228C66.6478 18.7413 66.495 18.7598 66.3676 18.7783C66.3166 18.7783 66.2656 18.8152 66.2147 18.8337C66.2147 18.8337 66.1892 18.8707 66.2147 18.8707C66.3676 18.9262 66.5204 18.9631 66.6733 18.9262C66.9026 18.8892 67.1065 18.8337 67.3358 18.8337C67.3613 18.8337 67.3868 18.7968 67.3868 18.7783C67.3868 18.7228 67.3868 18.6858 67.4632 18.6858C67.5396 18.6858 67.6161 18.6858 67.6925 18.6858C67.718 18.6858 67.769 18.7043 67.7944 18.7413C67.9728 18.9262 68.2021 18.9816 68.4824 18.9262C68.6098 18.9077 68.7117 18.9077 68.8391 18.8892C68.8646 18.8892 68.8901 18.8337 68.8646 18.8152C68.8646 18.7783 68.8137 18.7228 68.8391 18.6858C68.8646 18.6489 68.9411 18.6304 68.992 18.6304C69.2213 18.5934 69.4761 18.5934 69.7055 18.6304C69.7309 18.6304 69.7564 18.6858 69.7309 18.7043C69.7055 18.7228 69.6545 18.7413 69.629 18.7598C69.6035 18.7783 69.5781 18.8152 69.6035 18.8337C69.6035 18.8522 69.6545 18.8892 69.68 18.8892C69.8329 18.8892 70.0112 18.8707 70.1131 18.7783C70.2151 18.6858 70.317 18.6304 70.4699 18.6304C70.7756 18.5934 71.0814 18.5749 71.3872 18.5379C71.591 18.5194 71.7948 18.5379 71.9732 18.5934C72.1006 18.6304 72.1516 18.6673 72.1261 18.6858C72.0751 18.7413 71.9987 18.7413 71.9222 18.7598C71.7948 18.7783 71.6674 18.7783 71.5655 18.7783C71.54 18.7783 71.5146 18.7968 71.4636 18.8152C71.7948 18.8337 72.1261 18.8707 72.4319 18.8892C72.5847 18.8892 72.7121 18.8892 72.865 18.8707C73.1453 18.8522 73.4256 18.8337 73.7059 18.8522C73.8333 18.8707 73.9352 18.8337 74.0626 18.8337C74.1645 18.8152 74.19 18.7783 74.139 18.6858C74.1135 18.6489 74.1135 18.6304 74.1645 18.6119C74.19 18.6119 74.2409 18.5934 74.2919 18.5934C74.4957 18.6119 74.6996 18.6119 74.9034 18.5934C75.0563 18.5749 75.2347 18.5934 75.3876 18.5934C75.5659 18.5934 75.6933 18.6304 75.7952 18.7413C75.9226 18.8707 76.101 18.8152 76.2284 18.7598C76.3048 18.7228 76.3558 18.6489 76.4323 18.5934C76.5851 18.501 76.7635 18.4455 76.9419 18.4825C77.2476 18.5564 77.5279 18.5749 77.8337 18.5564C77.9101 18.5564 77.9865 18.5749 78.063 18.5749C78.1394 18.5749 78.1394 18.6119 78.1139 18.6673C78.063 18.7783 78.0885 18.8337 78.2413 18.8337C78.649 18.8337 79.0567 18.8152 79.4644 18.8152C79.5663 18.8152 79.6937 18.7968 79.7192 18.7043C79.7702 18.5934 79.8466 18.5749 79.9995 18.5749C80.0504 18.5749 80.1269 18.5749 80.1778 18.5934C80.2288 18.5934 80.2288 18.6304 80.2288 18.6673C80.2033 18.7413 80.3052 18.7783 80.3562 18.7968C80.5346 18.8522 80.7129 18.7968 80.8658 18.7228C80.8658 18.7228 80.8403 18.6673 80.8149 18.6489C80.7894 18.6119 80.7894 18.5934 80.8403 18.5749C81.1206 18.5194 81.4009 18.5564 81.6557 18.6673L81.6557 18.6489C81.7067 18.7228 81.7831 18.7783 81.9105 18.7413L81.885 18.7598C82.0634 18.7598 82.2417 18.7228 82.4201 18.7413C82.5985 18.7598 82.7768 18.7968 82.9552 18.8152C83.0062 18.8152 83.1081 18.7783 83.1081 18.7598C83.1081 18.7413 83.0826 18.7043 83.0571 18.7043C83.0316 18.6858 82.9807 18.6858 82.9552 18.6673C82.9552 18.6673 82.9297 18.6489 82.9297 18.6304C82.9297 18.6119 82.9552 18.5934 82.9552 18.5934C83.2355 18.5749 83.5158 18.5564 83.796 18.5379C83.9489 18.5194 84.0763 18.5749 84.1273 18.6858C84.1528 18.7598 84.2547 18.7968 84.3566 18.8152C84.484 18.8337 84.6114 18.8337 84.7133 18.8337C85.2484 18.8337 85.809 18.8337 86.3441 18.8337C86.5224 18.8337 86.7008 18.8152 86.8792 18.7598C86.9046 18.7598 86.9301 18.7413 86.9301 18.7413C86.9556 18.7043 86.9301 18.6858 86.8792 18.6858C86.6498 18.6673 86.395 18.6673 86.1657 18.6489C86.1657 18.6489 86.1402 18.6304 86.1402 18.6119C86.1402 18.5934 86.1657 18.5749 86.1657 18.5749C86.2421 18.5564 86.3186 18.5379 86.395 18.5564C86.6243 18.5934 86.8282 18.6119 87.0575 18.5749C87.1849 18.5564 87.3378 18.5934 87.4652 18.5934C87.5926 18.5934 87.6945 18.6119 87.8219 18.6304C87.8219 18.6858 87.7964 18.7228 87.7964 18.7598C87.8219 18.7968 87.8729 18.8337 87.9238 18.8337C88.0512 18.8522 88.2041 18.8707 88.3315 18.8892C88.357 18.8892 88.3825 18.9262 88.408 18.9262C88.3825 18.9447 88.3315 18.9447 88.306 18.9631C88.2551 18.9816 88.2041 18.9816 88.1277 19.0001C88.1277 19.0001 88.1277 19.0186 88.1277 19.0371C88.1277 19.0556 88.1532 19.0556 88.1786 19.0556C88.4844 19.0741 88.7902 19.0001 88.994 18.8337C89.0959 18.8337 89.1979 18.8337 89.2743 18.8337C89.2998 18.8337 89.2998 18.7968 89.3253 18.7783C89.2998 18.7598 89.2488 18.7413 89.2233 18.7413C89.1469 18.7598 89.045 18.8152 88.9685 18.8337C88.9176 18.7968 88.8666 18.7413 88.8157 18.7043C88.8157 18.6858 88.7902 18.6673 88.7902 18.6673C88.8156 18.6489 88.8411 18.6119 88.8666 18.6119C89.0195 18.6119 89.1469 18.5934 89.2998 18.5934C89.4527 18.5934 89.5801 18.6304 89.682 18.7228C89.7329 18.7598 89.7839 18.7413 89.8349 18.7043C89.8858 18.6673 89.9113 18.6119 89.9623 18.6119C90.1916 18.5749 90.3954 18.5379 90.6247 18.5564C91.1344 18.6304 91.644 18.5934 92.1536 18.5749C92.281 18.5749 92.3829 18.5379 92.4848 18.4825C92.5867 18.427 92.7141 18.427 92.816 18.4825C92.9435 18.5749 93.0963 18.5934 93.2747 18.5934C93.4531 18.5934 93.6314 18.5934 93.8353 18.5934C93.8607 18.5934 93.9117 18.6119 93.9372 18.6304C93.9627 18.6489 93.8862 18.7228 93.8353 18.7228C93.7079 18.7413 93.6059 18.7413 93.4785 18.7598C93.4276 18.7598 93.4021 18.7968 93.4276 18.8337C93.4276 18.8522 93.4531 18.8522 93.4785 18.8522C93.8607 18.8152 94.2429 18.8892 94.6251 18.8152C94.6506 18.8152 94.6761 18.7968 94.6761 18.7968C94.6506 18.7783 94.6506 18.7598 94.6251 18.7228C94.5997 18.7043 94.5742 18.6858 94.5487 18.6489C94.5487 18.6489 94.5487 18.6119 94.5742 18.6119C94.5997 18.5934 94.6506 18.5934 94.6761 18.5934C94.9309 18.5934 95.1602 18.5749 95.415 18.5934C95.7463 18.5934 96.0775 18.6119 96.3833 18.5749C96.5107 18.5564 96.6381 18.5749 96.74 18.5749C96.9948 18.5934 97.2241 18.6119 97.4789 18.6119C97.5809 18.6119 97.6318 18.6489 97.6063 18.6858C97.5809 18.7043 97.5554 18.7228 97.5044 18.7228C97.1477 18.7413 96.8164 18.7598 96.4597 18.7228C96.1285 18.6858 95.7972 18.7043 95.4915 18.7043C95.466 18.7043 95.415 18.7228 95.415 18.7598C95.415 18.7783 95.4405 18.8152 95.466 18.8152C95.5934 18.8337 95.6953 18.8522 95.8227 18.8707C95.9501 18.8892 96.103 18.9262 96.2559 18.9816C96.2814 18.9816 96.3323 18.9631 96.3833 18.9447C96.5362 18.8707 96.7145 18.8337 96.8929 18.8707C97.2241 18.9262 97.5299 18.9077 97.8611 18.9077C98.014 18.9077 98.1414 18.9077 98.2943 18.8892C98.4981 18.8522 98.702 18.8707 98.9058 18.9077C99.0587 18.9447 99.2116 18.9631 99.39 18.9447C99.4919 18.9447 99.5938 18.9631 99.6957 18.9631C99.7722 18.9631 99.8486 18.9816 99.925 18.9816C100.638 18.9077 101.352 18.9077 102.065 18.9447C102.091 18.9447 102.116 18.9447 102.116 18.9447C102.142 18.9262 102.193 18.9262 102.218 18.9077C102.218 18.8892 102.193 18.8522 102.167 18.8337C102.065 18.7598 102.065 18.7228 102.167 18.6858C102.32 18.6489 102.473 18.6119 102.626 18.5934C102.804 18.5564 102.983 18.5564 103.136 18.6673C103.187 18.7043 103.237 18.7228 103.288 18.7228C103.492 18.7043 103.696 18.7783 103.874 18.7968C104.027 18.8152 104.206 18.8337 104.359 18.8152C104.588 18.7783 104.792 18.7968 105.021 18.8152C105.327 18.8522 105.633 18.8337 105.938 18.7598C106.04 18.7228 106.168 18.7228 106.295 18.7043C106.372 18.7043 106.473 18.7043 106.524 18.7043C106.728 18.7413 106.907 18.7968 107.11 18.7228C107.136 18.7228 107.161 18.7228 107.161 18.7228C107.62 18.8522 108.13 18.8337 108.588 18.9447C108.614 18.9447 108.614 19.0001 108.614 19.0186C108.614 19.0186 108.588 19.0371 108.563 19.0371C108.512 19.0371 108.486 19.0371 108.435 19.0371C108.232 18.9816 108.002 18.9816 107.773 19.0001C107.747 19.0001 107.697 19.0186 107.671 19.0371C107.646 19.0371 107.646 19.0556 107.646 19.0741C107.646 19.0926 107.646 19.111 107.671 19.111C107.697 19.1295 107.747 19.148 107.773 19.148C108.053 19.1665 108.334 19.1665 108.639 19.1665C108.996 19.1665 109.327 19.1665 109.684 19.222C109.939 19.259 110.219 19.2774 110.474 19.2405C110.499 19.2405 110.55 19.2035 110.55 19.185C110.55 19.1665 110.499 19.1295 110.474 19.1295C110.372 19.111 110.27 19.111 110.168 19.0926C110.041 19.0741 109.964 19.0001 109.888 18.9447C110.219 18.9816 110.576 19.0001 110.907 19.0001C111.06 19.0001 111.238 19.0186 111.391 19.0186C111.671 19.0371 111.952 19.0556 112.232 19.0556C112.436 19.0556 112.64 19.0926 112.844 19.111C112.894 19.111 112.92 19.148 112.894 19.1665C112.894 19.185 112.869 19.185 112.844 19.185C112.665 19.185 112.487 19.185 112.308 19.185C112.054 19.185 111.824 19.1665 111.57 19.1665C111.544 19.1665 111.519 19.2035 111.519 19.222L111.544 19.259C111.722 19.3144 111.901 19.3329 112.079 19.3514C112.436 19.3699 112.818 19.3699 113.175 19.3884C113.277 19.3884 113.379 19.3514 113.43 19.2959C113.481 19.2405 113.506 19.2035 113.557 19.148C113.582 19.1295 113.633 19.111 113.659 19.111C113.71 19.111 113.786 19.111 113.837 19.148C113.888 19.185 113.863 19.222 113.837 19.259C113.786 19.3329 113.812 19.3699 113.888 19.3884C113.939 19.4069 114.016 19.4069 114.067 19.4069C114.143 19.4069 114.245 19.3884 114.245 19.3329C114.27 19.222 114.372 19.185 114.5 19.185C114.729 19.185 114.958 19.148 115.162 19.2405C115.188 19.2405 115.188 19.259 115.188 19.2774C115.188 19.2959 115.188 19.3144 115.162 19.3144C115.06 19.3329 114.984 19.3514 114.882 19.3699C114.856 19.3699 114.831 19.3884 114.831 19.3884C114.856 19.4069 114.856 19.4438 114.882 19.4438C115.239 19.4808 115.595 19.5178 115.978 19.5548C116.029 19.5548 116.054 19.5548 116.105 19.5548C116.818 19.5178 117.532 19.5917 118.22 19.6102C118.271 19.6102 118.296 19.6102 118.347 19.6102C118.831 19.5917 119.265 19.6657 119.723 19.7581C119.851 19.7766 119.953 19.7766 120.08 19.7766C120.207 19.7581 120.335 19.7396 120.437 19.7581C120.921 19.8321 121.405 19.8136 121.889 19.8506C122.322 19.8875 122.73 19.869 123.163 19.9615C123.265 19.98 123.392 19.98 123.52 19.98C123.876 19.98 124.208 19.98 124.539 20.0354C124.513 20.0539 124.463 20.0724 124.437 20.0909C124.412 20.0909 124.412 20.1094 124.412 20.1279C124.412 20.1464 124.437 20.1648 124.437 20.1648C124.488 20.1833 124.513 20.1648 124.513 20.1279C124.513 20.0909 124.513 20.0724 124.513 20.0354C124.641 20.0354 124.768 20.0169 124.87 20.0169C125.15 20.0354 125.431 20.0539 125.711 20.0909C125.966 20.1279 126.246 20.1464 126.501 20.1464C126.756 20.1464 126.985 20.1833 127.163 20.3312C127.291 20.4237 127.469 20.4237 127.597 20.3312C127.724 20.2388 127.826 20.2203 127.979 20.2388C128.081 20.2573 128.183 20.2573 128.285 20.2943C128.616 20.3682 128.947 20.4237 129.304 20.4237C129.38 20.4237 129.457 20.4422 129.533 20.4606C129.584 20.4791 129.635 20.5346 129.584 20.5716C129.559 20.5901 129.533 20.627 129.508 20.627C129.253 20.627 128.973 20.6085 128.718 20.6085C128.692 20.6085 128.641 20.627 128.616 20.627L128.59 20.664C128.641 20.738 128.718 20.8119 128.845 20.8489C129.049 20.9044 129.278 20.9413 129.508 20.9413C129.508 20.9783 129.533 21.0338 129.533 21.0707C129.559 21.1817 129.635 21.2556 129.788 21.2926C129.915 21.3111 130.068 21.3481 130.17 21.4035C130.247 21.4405 130.374 21.459 130.45 21.4405C130.807 21.3665 131.164 21.4035 131.521 21.496C131.572 21.5144 131.648 21.5329 131.699 21.5144C132.132 21.496 132.54 21.6254 132.947 21.6808C133.126 21.7178 133.304 21.7363 133.483 21.7178C133.865 21.6808 134.247 21.6993 134.629 21.7548C134.757 21.7733 134.909 21.7733 135.062 21.7733C135.164 21.7918 135.266 21.7918 135.343 21.8287C135.521 21.9027 135.674 21.9212 135.878 21.9212C136.285 21.9581 136.693 21.9951 137.101 22.0321C137.228 22.0506 137.33 22.0691 137.432 22.1245C137.457 22.143 137.457 22.18 137.457 22.1985C137.457 22.1985 137.432 22.217 137.406 22.217C137.789 22.106 137.61 22.0691 137.457 21.9951ZM102.473 19.3884L102.473 19.3699C102.473 19.3699 102.473 19.4069 102.473 19.3884C102.499 19.3884 102.499 19.3699 102.524 19.3699L102.524 19.3884C102.499 19.3884 102.499 19.3884 102.473 19.3884ZM56.2519 18.8337C56.2519 18.8522 56.2519 18.8522 56.2519 18.8707C56.2519 18.8892 56.2519 18.8892 56.2519 18.9077C56.2519 18.8707 56.2519 18.8522 56.2519 18.8337ZM67.6161 19.185C67.6161 19.2035 67.6416 19.2035 67.6416 19.222C67.6161 19.2035 67.6161 19.2035 67.6161 19.185ZM134.476 22.2724C134.502 22.2909 134.527 22.3094 134.553 22.3279C134.553 22.3279 134.578 22.3464 134.604 22.3464C134.629 22.3464 134.629 22.3279 134.655 22.3279C134.629 22.3094 134.629 22.2909 134.604 22.2724C134.553 22.2724 134.502 22.2909 134.476 22.2724ZM47.028 19.7211C47.079 19.7211 47.13 19.7211 47.1809 19.7211C47.2064 19.7211 47.2319 19.7211 47.2319 19.7027C47.2319 19.7027 47.2574 19.6842 47.2574 19.6657C47.2319 19.6657 47.1809 19.6287 47.1554 19.6472C47.1045 19.6657 47.0535 19.6842 47.028 19.7211ZM64.6349 18.6489C64.7113 18.7228 64.8387 18.7413 64.9661 18.7413C65.0171 18.7413 65.0935 18.7413 65.0935 18.6858C65.119 18.6489 65.0426 18.6119 64.9661 18.6119C64.8642 18.6304 64.7368 18.6489 64.6349 18.6489ZM126.603 20.3867C126.705 20.4606 126.807 20.5161 126.96 20.5161C127.087 20.5161 127.189 20.5161 127.316 20.5161C127.367 20.5161 127.393 20.4976 127.342 20.4422C127.112 20.4237 126.858 20.4052 126.603 20.3867C126.552 20.3867 126.526 20.3867 126.475 20.3867C126.45 20.3867 126.424 20.3867 126.424 20.3867L126.399 20.4052C126.424 20.4052 126.475 20.4237 126.501 20.4052C126.526 20.4052 126.577 20.3867 126.603 20.3867ZM126.119 20.627C126.144 20.664 126.17 20.701 126.221 20.738C126.272 20.7749 126.348 20.8304 126.424 20.8304C126.73 20.8674 127.011 20.9044 127.316 20.8674C127.342 20.8674 127.367 20.8304 127.367 20.7934C127.367 20.7749 127.316 20.738 127.291 20.738C127.24 20.738 127.163 20.738 127.112 20.738C126.781 20.7749 126.475 20.738 126.119 20.627C125.94 20.627 125.762 20.6455 125.584 20.6455C125.533 20.6455 125.507 20.6455 125.456 20.6455C125.431 20.664 125.405 20.6825 125.405 20.701C125.431 20.7195 125.456 20.738 125.507 20.738C125.711 20.7749 125.915 20.701 126.119 20.627ZM96.9948 19.4993C97.2241 19.6287 97.4789 19.6102 97.7592 19.6102C97.7847 19.5732 97.7592 19.5548 97.7083 19.5363C97.6318 19.4993 97.5809 19.4623 97.6063 19.3884C97.6318 19.3329 97.7083 19.2959 97.7847 19.2774C97.8357 19.2589 97.9121 19.2589 97.9631 19.2589C98.0395 19.2589 98.1159 19.2589 98.2179 19.2589C98.3198 19.2589 98.3707 19.2035 98.3198 19.185C98.2943 19.1665 98.2433 19.148 98.2179 19.148C97.9376 19.185 97.6573 19.185 97.377 19.185C97.2496 19.185 97.2241 19.222 97.2751 19.3144C97.3261 19.4069 97.3006 19.4623 97.1732 19.4808C97.1222 19.4993 97.0458 19.4993 96.9948 19.4993C96.9693 19.4993 96.9693 19.4993 96.9438 19.4993C96.9693 19.4993 96.9948 19.4993 96.9948 19.4993ZM124.539 20.5161C124.361 20.5531 124.208 20.5901 124.029 20.6455L124.029 20.6825C124.233 20.7564 124.437 20.7749 124.666 20.7564C124.692 20.7564 124.692 20.738 124.717 20.7195C124.717 20.701 124.743 20.6825 124.717 20.6825C124.641 20.6085 124.59 20.5531 124.539 20.5161C124.768 20.4237 125.023 20.4052 125.303 20.4237C125.431 20.4237 125.533 20.4422 125.66 20.4422C125.686 20.4422 125.711 20.4052 125.737 20.3867C125.737 20.3867 125.711 20.3682 125.711 20.3497C125.558 20.2943 125.431 20.2388 125.278 20.1833C124.998 20.2758 124.692 20.2573 124.386 20.2573C124.259 20.2573 124.157 20.2388 124.029 20.2388C124.004 20.2388 123.953 20.2573 123.927 20.2758C123.927 20.2758 123.902 20.2943 123.902 20.3127C123.902 20.3312 123.927 20.3497 123.927 20.3497C124.029 20.3682 124.131 20.3682 124.233 20.3682C124.335 20.3497 124.463 20.4052 124.539 20.5161ZM128.31 20.5531C128.31 20.6085 128.285 20.664 128.285 20.7195C128.259 20.7749 128.234 20.8304 128.132 20.8489C128.081 20.8674 128.004 20.8859 128.055 20.9413C128.539 21.0338 129.049 21.0707 129.559 21.0338C129.61 21.0338 129.635 20.9968 129.635 20.9783C129.635 20.9598 129.584 20.9228 129.559 20.9228C129.508 20.9044 129.431 20.9044 129.38 20.9044C129.202 20.9413 129.023 20.9044 128.845 20.8489C128.743 20.8119 128.692 20.7564 128.667 20.6825C128.641 20.5716 128.565 20.5346 128.412 20.5346C128.386 20.5531 128.336 20.5531 128.31 20.5531ZM27.1534 19.0001C26.6948 19.148 26.6184 19.1665 26.2107 19.185C25.803 19.185 25.3953 19.2035 24.9876 19.2035C24.6054 19.2035 24.2232 19.2035 23.841 19.2035C23.8155 19.2035 23.7901 19.222 23.7901 19.222C23.7646 19.2405 23.7901 19.2774 23.841 19.2774C24.1213 19.2774 24.4016 19.2589 24.6819 19.2774C25.3698 19.2774 26.0578 19.2959 26.7458 19.2774C26.9496 19.2774 27.1534 19.2589 27.3573 19.2774C27.9179 19.3144 28.5039 19.2774 29.0645 19.2589C29.2683 19.2589 29.4722 19.222 29.6505 19.185C29.6505 19.185 29.676 19.1665 29.676 19.148C29.676 19.1295 29.6505 19.1295 29.6505 19.111C29.3702 19.0926 29.0899 19.0741 28.8097 19.0556C28.5294 19.0556 28.2491 19.0926 27.9688 19.0556C27.6885 19.111 27.4082 19.0741 27.1534 19.0001ZM21.2165 19.185C20.7579 19.185 20.2738 19.185 19.8151 19.185C19.7642 19.185 19.6877 19.2035 19.6368 19.2035C19.6368 19.2035 19.6113 19.222 19.6113 19.2405C19.6113 19.2589 19.6113 19.2774 19.6368 19.2774C19.7132 19.2959 19.7897 19.3144 19.8661 19.3144C20.4267 19.3144 20.9617 19.3329 21.5223 19.3329C21.879 19.3329 22.2612 19.3144 22.618 19.3144C22.6689 19.3144 22.7199 19.2959 22.7708 19.2774C22.7708 19.2774 22.7963 19.2405 22.7708 19.2405C22.7199 19.222 22.6689 19.185 22.618 19.185C22.1593 19.185 21.6752 19.185 21.2165 19.185ZM23.6627 18.9262C24.0958 18.9077 24.4525 18.9631 24.8093 18.9447C25.0131 18.9447 25.2169 18.9447 25.4208 18.9447C25.9814 18.9447 26.5674 18.9262 27.128 18.9262C27.2044 18.9262 27.2554 18.8707 27.2299 18.8522C27.2044 18.8337 27.1789 18.7968 27.1534 18.7968C26.8732 18.7598 26.5929 18.7413 26.3126 18.7598C25.9814 18.7968 25.6246 18.8337 25.2934 18.7783C25.2424 18.7783 25.2169 18.7783 25.166 18.7783C24.8347 18.8337 24.478 18.8152 24.1213 18.8152C23.9939 18.8152 23.841 18.8152 23.6627 18.9262ZM131.062 21.6993C131.189 21.6993 131.342 21.7178 131.47 21.7178C131.979 21.7548 132.489 21.7918 132.973 21.9027C133.253 21.9766 133.533 21.9581 133.814 21.8842C133.839 21.8842 133.865 21.8657 133.839 21.8472C133.839 21.8287 133.839 21.7918 133.814 21.7733C133.661 21.7178 133.457 21.6993 133.279 21.6808C132.642 21.6623 131.979 21.6254 131.342 21.6069C131.266 21.6069 131.189 21.6069 131.113 21.6254C131.062 21.6439 131.036 21.6623 131.062 21.6993ZM31.1793 18.7968C31.4086 18.8152 31.536 18.8337 31.6635 18.8337C32.3769 18.8337 33.0903 18.8152 33.7783 18.8152C33.8547 18.8152 33.9312 18.8152 34.0076 18.7968C34.0331 18.7968 34.0841 18.7783 34.1096 18.7598C34.1096 18.7598 34.135 18.7228 34.1096 18.7228C34.0586 18.7043 34.0076 18.6673 33.9567 18.6673C33.3451 18.7043 32.7591 18.6304 32.1476 18.6858C31.8418 18.6673 31.5615 18.7043 31.1793 18.7968ZM35.0268 18.7228C35.2307 18.7783 35.4345 18.7783 35.6384 18.7598C36.2754 18.7413 36.9379 18.7228 37.5749 18.7043C37.6258 18.7043 37.7023 18.6858 37.7532 18.6858C37.8042 18.6858 37.8297 18.6489 37.8042 18.6304C37.8042 18.6119 37.7787 18.6119 37.7532 18.6119C37.3201 18.6119 36.9124 18.6304 36.4792 18.5749C36.3518 18.5564 36.1989 18.5564 36.0461 18.5564C35.6893 18.5564 35.511 18.5749 35.0268 18.7228ZM115.341 20.0724C115.239 20.0724 115.137 20.0724 115.035 20.0724C115.009 20.0724 114.958 20.1094 114.958 20.1279C114.958 20.1464 114.984 20.1833 115.009 20.1833C115.341 20.2573 115.672 20.2758 116.029 20.2573C116.181 20.2573 116.309 20.2388 116.462 20.2388C116.742 20.2573 117.022 20.2758 117.303 20.2943C117.455 20.2943 117.634 20.2943 117.787 20.2943C117.812 20.2943 117.838 20.2758 117.838 20.2758C117.838 20.2573 117.812 20.2203 117.787 20.2018C117.685 20.1464 117.557 20.1464 117.43 20.1464C117.124 20.1464 116.818 20.1279 116.513 20.1464C116.207 20.1648 115.927 20.0724 115.621 20.0539C115.544 20.0724 115.443 20.0724 115.341 20.0724ZM121.532 20.4237C121.456 20.4237 121.405 20.4237 121.328 20.4422C121.303 20.4422 121.277 20.4606 121.227 20.4791C121.252 20.4976 121.277 20.5161 121.328 20.5346C121.405 20.5531 121.481 20.5716 121.558 20.5716C122.067 20.6085 122.577 20.627 123.087 20.6455C123.112 20.6455 123.138 20.6455 123.138 20.627C123.163 20.627 123.163 20.6085 123.163 20.5901C123.163 20.5716 123.163 20.5531 123.138 20.5531C122.908 20.5346 122.653 20.4976 122.424 20.4791C122.144 20.4606 121.838 20.4422 121.532 20.4237ZM91.4656 18.464C91.3127 18.464 91.1344 18.4825 90.9815 18.4825C90.956 18.4825 90.905 18.5194 90.905 18.5379C90.905 18.5564 90.9305 18.6119 90.956 18.6119C91.3127 18.6673 91.6694 18.6858 92.0262 18.6489C92.0516 18.6489 92.1026 18.6119 92.1026 18.5934C92.1026 18.5749 92.0771 18.5379 92.0516 18.5194C91.8733 18.464 91.6694 18.464 91.4656 18.464ZM133.432 22.3094C133.483 22.3094 133.508 22.3094 133.533 22.3094C133.559 22.2909 133.584 22.2724 133.61 22.2539C133.584 22.2355 133.559 22.1985 133.533 22.1985C133.304 22.18 133.049 22.143 132.82 22.1245C132.616 22.1245 132.412 22.106 132.234 22.0691C132.081 22.0506 131.928 22.0506 131.75 22.0321C131.75 22.0321 131.724 22.0506 131.724 22.0691C131.724 22.0876 131.75 22.106 131.75 22.106C131.801 22.1245 131.877 22.1245 131.928 22.143C132.31 22.1615 132.693 22.1985 133.049 22.2724C133.177 22.2909 133.33 22.2909 133.432 22.3094ZM89.9113 19.4993L89.9368 19.5178C90.4209 19.5363 90.905 19.5548 91.3892 19.5548C91.6694 19.5548 91.9497 19.5363 92.281 19.5178C91.3127 19.4069 91.2108 19.4438 89.9113 19.4993ZM29.2938 18.7968C28.8351 18.6858 28.4275 18.7413 28.0198 18.8152C27.9943 18.8152 27.9943 18.8337 27.9943 18.8522C27.9943 18.8707 27.9943 18.8892 28.0198 18.8892C28.0962 18.9077 28.1727 18.9262 28.2491 18.9262C28.6058 18.9262 28.9371 18.8707 29.2938 18.7968ZM60.66 19.3884C60.5581 19.3514 60.4561 19.3144 60.3287 19.2774C60.2268 19.2405 60.1249 19.2589 60.0484 19.2959C59.972 19.3329 59.9465 19.4068 59.9975 19.4438C60.0739 19.4993 60.1249 19.5548 60.0994 19.6287C60.0994 19.6842 60.2268 19.7211 60.2778 19.7027C60.4052 19.6287 60.5071 19.5548 60.6345 19.4808C60.6345 19.4438 60.6345 19.4253 60.66 19.3884ZM122.373 20.2573C122.348 20.2573 122.45 20.2573 122.552 20.2388C122.577 20.2388 122.628 20.2018 122.628 20.1833C122.628 20.1648 122.628 20.1279 122.602 20.1094C122.526 20.0539 122.424 19.9985 122.348 20.0354C122.093 20.0909 121.838 20.0724 121.583 20.1094C121.558 20.1094 121.558 20.1279 121.558 20.1464C121.558 20.1648 121.583 20.1833 121.583 20.1833C121.762 20.2573 121.991 20.2573 122.373 20.2573ZM123.01 21.1632C123.138 21.1447 123.265 21.1447 123.367 21.1262C123.392 21.1262 123.392 21.1077 123.392 21.0892C123.392 21.0707 123.367 21.0153 123.341 21.0153C123.087 20.9968 122.832 20.9598 122.577 20.9413C122.475 20.9413 122.373 20.9598 122.271 20.9598C122.22 20.9598 122.195 20.9783 122.195 21.0153C122.195 21.0338 122.246 21.0707 122.271 21.0707C122.552 21.1262 122.781 21.1447 123.01 21.1632ZM72.4828 19.3144C72.5847 19.3144 72.6867 19.2959 72.7886 19.2774C72.8141 19.2774 72.865 19.2405 72.865 19.222C72.8905 19.185 72.865 19.1295 72.8395 19.0926C72.6867 18.9447 72.3044 19.0186 72.2535 19.2035C72.2535 19.222 72.279 19.2589 72.3044 19.2774C72.3809 19.2959 72.4319 19.2959 72.4828 19.3144ZM117.71 19.8875C117.838 19.906 117.94 19.8506 117.94 19.7951C117.94 19.7396 117.94 19.6842 117.914 19.6287C117.838 19.5363 117.659 19.5178 117.557 19.5732C117.481 19.6102 117.481 19.7396 117.583 19.8136C117.608 19.8506 117.685 19.869 117.71 19.8875ZM63.3864 19.7211C63.4628 19.7211 63.6157 19.7027 63.7431 19.6842C63.7686 19.6842 63.8195 19.6657 63.845 19.6472C63.845 19.6472 63.845 19.6287 63.845 19.6102C63.845 19.5917 63.8195 19.5917 63.794 19.5732C63.6157 19.5363 63.4373 19.5178 63.259 19.5732C63.208 19.5917 63.157 19.6287 63.1316 19.6472C63.1061 19.6657 63.1825 19.7211 63.259 19.7211C63.2844 19.7211 63.3099 19.7211 63.3864 19.7211ZM19.3565 18.8152C19.2546 18.8337 19.1526 18.8337 19.0507 18.8337C18.9998 18.8337 18.9743 18.8522 18.9743 18.8892C18.9743 18.9077 18.9998 18.9077 19.0252 18.9077C19.2036 18.9262 19.382 18.9447 19.5603 18.9631C19.6113 18.9631 19.6877 18.9631 19.7387 18.9447C19.7642 18.9447 19.7897 18.9077 19.8406 18.8892C19.8151 18.8707 19.7897 18.8337 19.7642 18.8337C19.6368 18.8337 19.5094 18.8337 19.3565 18.8152ZM66.7752 19.0001C66.8517 19.0001 66.9026 19.0001 66.9281 18.9816C66.9536 18.9631 66.9791 18.9447 66.9791 18.9077L66.9536 18.8707C66.8262 18.8152 66.6224 18.8337 66.5204 18.9077L66.5204 18.9447C66.5969 18.9816 66.6988 18.9816 66.7752 19.0001ZM95.8482 19.5917C95.9246 19.5732 95.9501 19.5732 96.0011 19.5732C96.0266 19.5548 96.052 19.5363 96.052 19.4993C96.052 19.4993 96.0266 19.4808 96.0266 19.4623C95.8992 19.4253 95.7718 19.4253 95.6189 19.4438C95.5679 19.4438 95.5424 19.4808 95.5679 19.4993C95.5679 19.5178 95.5934 19.5178 95.5934 19.5363C95.6953 19.5732 95.7718 19.5732 95.8482 19.5917ZM79.6173 19.1665C79.5918 19.148 79.5918 19.1295 79.5918 19.1295C79.388 19.0926 79.1586 19.0926 78.9293 19.111C78.8784 19.111 78.8529 19.1295 78.8784 19.1665C78.8784 19.185 78.9038 19.185 78.9293 19.185C79.1586 19.2405 79.388 19.222 79.6173 19.1665ZM57.0418 19.7027C56.9653 19.7027 56.8889 19.7211 56.8379 19.7211C56.8125 19.7211 56.787 19.7396 56.787 19.7396C56.7615 19.7581 56.7615 19.7951 56.8125 19.8136C56.8634 19.8321 56.9144 19.869 56.9653 19.8875C57.0673 19.9245 57.1947 19.906 57.2711 19.8136C57.2966 19.7951 57.2711 19.7396 57.2456 19.7396C57.1692 19.7211 57.0927 19.7211 57.0418 19.7027ZM71.7184 19.6657C71.8458 19.6657 71.9222 19.6102 71.9477 19.5363C71.9477 19.5178 71.9222 19.4808 71.8968 19.4623C71.7948 19.4253 71.6929 19.4438 71.6165 19.4808C71.5655 19.4993 71.5655 19.5732 71.591 19.5917C71.642 19.6287 71.6929 19.6472 71.7184 19.6657ZM88.6118 19.148C88.5863 19.1295 88.5608 19.0741 88.5608 19.0741C88.4334 19.0741 88.3315 19.0926 88.2041 19.0926C88.1786 19.0926 88.1786 19.111 88.1786 19.1295C88.1786 19.148 88.1786 19.1665 88.1786 19.1665C88.306 19.2589 88.408 19.2589 88.5608 19.2035C88.5608 19.2035 88.5863 19.1665 88.6118 19.148ZM103.925 18.8522C104.027 18.8337 104.104 18.8337 104.18 18.8152C104.231 18.8152 104.257 18.7783 104.231 18.7413C104.231 18.7228 104.206 18.7228 104.18 18.7043C104.027 18.6673 103.874 18.6673 103.722 18.7413L103.722 18.7783C103.798 18.8152 103.874 18.8337 103.925 18.8522ZM81.1716 19.4993C81.4264 19.5178 81.5538 19.5363 81.6812 19.5548C81.7067 19.5548 81.7321 19.5363 81.7321 19.5363C81.7321 19.4993 81.7067 19.4808 81.6812 19.4808C81.5283 19.4623 81.3754 19.4438 81.1716 19.4993ZM103.034 19.7396C103.136 19.7396 103.187 19.7396 103.212 19.7396C103.237 19.7396 103.288 19.7027 103.314 19.6842C103.339 19.6657 103.263 19.6102 103.187 19.6102C103.059 19.6102 102.957 19.6287 102.83 19.6287C102.804 19.6287 102.779 19.6472 102.779 19.6472C102.804 19.6657 102.804 19.7027 102.855 19.7027C102.932 19.7396 103.008 19.7396 103.034 19.7396ZM83.4393 18.7783C83.4393 18.7968 83.4393 18.7968 83.4138 18.8152C83.4903 18.8152 83.5667 18.8337 83.6432 18.8152C83.7196 18.8152 83.796 18.8337 83.847 18.7783C83.7196 18.7783 83.5667 18.7783 83.4393 18.7783ZM43.5882 19.8506C43.5882 19.8321 43.5882 19.8136 43.5627 19.8136C43.4863 19.7581 43.3844 19.7581 43.3079 19.8136C43.2824 19.8321 43.2824 19.869 43.2824 19.8875C43.3589 19.98 43.5118 19.98 43.5627 19.8875C43.5882 19.8875 43.5882 19.869 43.5882 19.8506ZM96.2559 19.148C96.2559 19.0926 96.2304 19.0371 96.1794 19.0556C96.154 19.0556 96.103 19.0741 96.0775 19.0926C96.052 19.111 96.0266 19.148 96.0266 19.1665C96.0011 19.2035 96.052 19.2589 96.103 19.2589C96.2049 19.2405 96.2559 19.222 96.2559 19.148ZM84.3566 19.1295C84.3311 19.111 84.3056 19.0741 84.2802 19.0741C84.2037 19.0741 84.1273 19.0926 84.0508 19.0926C84.0254 19.0926 83.9999 19.111 83.9999 19.111C83.9999 19.1295 84.0254 19.1665 84.0254 19.185C84.1018 19.2405 84.2037 19.2405 84.2802 19.185C84.3311 19.185 84.3311 19.148 84.3566 19.1295ZM23.0002 18.8707C22.8218 18.8522 22.8218 18.8522 22.6689 18.8892C22.7708 18.8892 22.8728 18.9262 23.0002 18.8707ZM69.8329 19.5732C69.8329 19.5548 69.8329 19.5363 69.8074 19.5178C69.7564 19.4808 69.7055 19.4623 69.6545 19.4993C69.629 19.5178 69.6035 19.5363 69.6035 19.5732C69.6035 19.5917 69.6545 19.6287 69.68 19.6287C69.7309 19.6102 69.7819 19.5917 69.8329 19.5732ZM117.685 20.8674C117.71 20.8674 117.736 20.8489 117.736 20.8489C117.736 20.8304 117.736 20.8119 117.736 20.8119C117.659 20.7934 117.608 20.7564 117.532 20.738C117.506 20.738 117.481 20.738 117.481 20.738C117.481 20.7564 117.481 20.7934 117.481 20.8119C117.532 20.8674 117.608 20.8859 117.685 20.8674ZM85.0701 19.4993C85.172 19.4993 85.2229 19.4808 85.2229 19.4438C85.2229 19.4069 85.1975 19.3884 85.1465 19.3884C85.0955 19.3884 85.0446 19.4069 85.0191 19.4438C85.0191 19.4808 85.0446 19.4993 85.0701 19.4993ZM76.4068 19.148C76.3813 19.1295 76.3303 19.0926 76.3049 19.0741C76.2539 19.0556 76.2029 19.0926 76.152 19.1295C76.1265 19.1665 76.152 19.222 76.2029 19.2405C76.3048 19.2589 76.3813 19.222 76.4068 19.148ZM50.2386 19.8136C50.264 19.8136 50.2895 19.8136 50.2895 19.8136C50.366 19.7951 50.4169 19.7396 50.4424 19.6842C50.4424 19.6657 50.4169 19.6287 50.3914 19.6102L50.3405 19.6102C50.2385 19.6472 50.1876 19.6842 50.2131 19.7766C50.2131 19.7766 50.2386 19.7951 50.2386 19.8136ZM75.0818 20.4237C75.0818 20.3867 75.0563 20.3682 75.0054 20.3682C74.9544 20.3682 74.9289 20.3867 74.9289 20.4237C74.9289 20.4606 74.9544 20.4791 75.0054 20.4791C75.0563 20.4791 75.0818 20.4606 75.0818 20.4237ZM130.756 22.0321C130.782 22.0321 130.833 22.0321 130.858 22.0321C130.884 22.0321 130.909 21.9951 130.909 21.9766L130.884 21.9581C130.807 21.9581 130.731 21.9397 130.654 21.9581C130.629 21.9581 130.603 21.9951 130.578 22.0136C130.603 22.0136 130.603 22.0321 130.629 22.0321C130.68 22.0321 130.705 22.0321 130.756 22.0321ZM106.219 18.7783C106.168 18.7783 106.091 18.8337 106.117 18.8522C106.142 18.8707 106.168 18.8892 106.219 18.8892C106.244 18.8892 106.27 18.8892 106.27 18.8892C106.295 18.8707 106.346 18.8522 106.346 18.8337C106.346 18.8152 106.321 18.7968 106.27 18.7783C106.27 18.7783 106.244 18.7783 106.219 18.7783ZM87.1594 19.185C87.2104 19.185 87.2359 19.185 87.2359 19.185C87.2868 19.185 87.3123 19.1665 87.2868 19.148C87.2868 19.148 87.2614 19.1295 87.2359 19.1295C87.2104 19.1295 87.1849 19.1295 87.1849 19.1295C87.134 19.1295 87.083 19.148 87.032 19.1665C87.083 19.148 87.134 19.1665 87.1594 19.185ZM80.56 18.8337C80.56 18.8152 80.56 18.7968 80.56 18.7783C80.5091 18.7783 80.4581 18.7598 80.4072 18.7598C80.3817 18.7598 80.3562 18.7783 80.3562 18.7783C80.3817 18.7968 80.3817 18.8337 80.4072 18.8337C80.4581 18.8522 80.5091 18.8337 80.56 18.8337ZM109.531 19.9245C109.557 19.9245 109.608 19.943 109.658 19.943C109.709 19.943 109.76 19.8875 109.76 19.8506C109.735 19.8136 109.658 19.7951 109.608 19.8136C109.531 19.8321 109.48 19.869 109.531 19.9245ZM118.271 20.0539C118.322 20.0539 118.398 20.0539 118.424 20.0354C118.449 20.0354 118.449 19.9985 118.475 19.9615C118.449 19.943 118.398 19.9245 118.373 19.9245C118.347 19.9245 118.296 19.943 118.271 19.9615C118.245 19.98 118.271 20.0169 118.271 20.0539ZM120.258 20.4052C120.258 20.3867 120.258 20.3682 120.233 20.3682C120.156 20.3312 120.08 20.3312 120.003 20.3682C120.003 20.3682 119.978 20.4052 120.003 20.4052C120.029 20.4422 120.105 20.4606 120.156 20.4422C120.207 20.4422 120.233 20.4052 120.258 20.4052ZM51.2832 19.6842C51.2832 19.6657 51.2578 19.6472 51.2578 19.6472C51.2068 19.6472 51.1558 19.6472 51.0794 19.6472C51.0539 19.6472 51.0284 19.6657 51.0284 19.6657C51.0539 19.6842 51.0539 19.7211 51.0794 19.7211C51.2068 19.7396 51.3087 19.7211 51.2832 19.6842ZM45.1935 19.2405C45.2189 19.222 45.2699 19.2035 45.2699 19.185C45.2954 19.148 45.2189 19.111 45.168 19.111C45.1425 19.111 45.0915 19.148 45.0915 19.1665C45.0661 19.222 45.117 19.2589 45.1935 19.2405ZM56.3029 19.5178C56.3283 19.5178 56.3283 19.5363 56.3538 19.5363C56.4048 19.5363 56.4303 19.5363 56.4812 19.5178C56.5067 19.5178 56.5067 19.4993 56.5067 19.4808C56.5067 19.4438 56.4303 19.4253 56.3538 19.4438C56.3029 19.4623 56.2774 19.4808 56.3029 19.5178ZM112.41 20.0539C112.461 20.0539 112.487 20.0539 112.487 20.0169C112.487 19.9985 112.461 19.9985 112.436 19.9985C112.41 19.9985 112.359 19.9985 112.334 20.0169C112.308 20.0354 112.359 20.0539 112.41 20.0539ZM47.6141 19.98C47.665 19.98 47.6905 19.9615 47.6905 19.9245C47.665 19.906 47.6396 19.8875 47.5886 19.8875C47.5631 19.8875 47.5122 19.906 47.4867 19.9245C47.4867 19.9245 47.4867 19.9615 47.5122 19.9615C47.5376 19.98 47.5631 19.98 47.6141 19.98ZM104.537 19.7766C104.537 19.7581 104.562 19.7396 104.562 19.7027C104.562 19.7027 104.537 19.6842 104.511 19.6842C104.486 19.7027 104.461 19.7211 104.461 19.7396C104.461 19.7766 104.486 19.7951 104.537 19.7766ZM83.3629 19.5178C83.3884 19.5178 83.4138 19.4993 83.4648 19.4993C83.4393 19.4808 83.4393 19.4623 83.4393 19.4623C83.4138 19.4623 83.3629 19.4808 83.3374 19.4808C83.3374 19.4993 83.3374 19.4993 83.3629 19.5178ZM73.3237 19.5363C73.3491 19.5363 73.3746 19.5178 73.3746 19.5178C73.4001 19.4808 73.3491 19.4623 73.2982 19.4808C73.2727 19.4808 73.2472 19.4993 73.2217 19.5178C73.2472 19.5178 73.2472 19.5363 73.2727 19.5363C73.2727 19.5363 73.2982 19.5363 73.3237 19.5363ZM129.38 21.9212C129.406 21.9212 129.431 21.9212 129.431 21.9212C129.457 21.9212 129.457 21.9027 129.457 21.9027C129.431 21.9027 129.406 21.8842 129.355 21.8842L129.329 21.9027C129.355 21.9027 129.38 21.9027 129.38 21.9212ZM106.83 19.111C106.83 19.1295 106.83 19.148 106.856 19.148C106.907 19.1665 106.932 19.148 106.932 19.1295C106.932 19.111 106.932 19.0926 106.907 19.0926C106.881 19.0556 106.856 19.0741 106.83 19.111ZM113.812 20.0539C113.812 20.0354 113.812 20.0169 113.812 20.0169C113.786 20.0169 113.735 20.0169 113.71 20.0169C113.71 20.0354 113.71 20.0539 113.735 20.0539C113.761 20.0909 113.786 20.0909 113.812 20.0539ZM109.557 19.6102C109.582 19.6102 109.633 19.5917 109.658 19.5917C109.658 19.5732 109.633 19.5363 109.633 19.5363C109.608 19.5363 109.557 19.5363 109.557 19.5548C109.48 19.5732 109.506 19.5917 109.557 19.6102ZM108.767 19.869C108.792 19.869 108.818 19.8506 108.869 19.8506C108.869 19.8321 108.869 19.8136 108.843 19.8136C108.818 19.8136 108.792 19.8136 108.741 19.8321C108.767 19.8506 108.767 19.869 108.767 19.869ZM56.8889 21.2186L56.8634 21.2002L56.8379 21.2371L56.8889 21.2186ZM108.053 19.869C108.079 19.869 108.079 19.8506 108.104 19.8506C108.104 19.8321 108.079 19.8321 108.079 19.8321C108.028 19.8136 108.002 19.8321 108.028 19.869C108.002 19.869 108.028 19.869 108.053 19.869ZM106.881 18.9077C106.932 18.9077 106.958 18.8892 106.958 18.8707C106.958 18.8522 106.932 18.8337 106.932 18.8337C106.907 18.8337 106.881 18.8522 106.83 18.8522C106.856 18.8707 106.881 18.8892 106.881 18.9077ZM60.2268 19.0741C60.2523 19.0741 60.2523 19.0556 60.2778 19.0556C60.2778 19.0371 60.2523 19.0371 60.2523 19.0186C60.2013 19.0001 60.1759 19.0186 60.2013 19.0556C60.1759 19.0741 60.2013 19.0741 60.2268 19.0741ZM61.1186 19.4438C61.0931 19.4808 61.1186 19.4993 61.1696 19.4808L61.1696 19.4438C61.1441 19.4438 61.1186 19.4438 61.1186 19.4438ZM53.8313 19.6472L53.8313 19.6842L53.8822 19.6657L53.8313 19.6472ZM90.5228 19.148L90.5483 19.1665C90.5993 19.1665 90.6247 19.148 90.5993 19.1295C90.5993 19.1295 90.5738 19.1295 90.5483 19.1295C90.5483 19.1295 90.5228 19.1295 90.5228 19.148ZM99.0078 19.5917C99.0332 19.5917 99.0332 19.5917 99.0587 19.5732L99.0332 19.5548C99.0332 19.5548 99.0077 19.5548 98.9823 19.5732C98.9823 19.5917 98.9823 19.5917 99.0078 19.5917ZM74.1135 19.5178C74.1645 19.5178 74.2155 19.5363 74.2155 19.4623C74.2155 19.4623 74.1645 19.4623 74.1135 19.4623L74.0881 19.4808C74.0881 19.5178 74.1135 19.5178 74.1135 19.5178ZM125.456 21.2186L125.482 21.2371L125.507 21.2186L125.482 21.2002C125.482 21.2002 125.456 21.2002 125.456 21.2186ZM128.106 20.4052C128.132 20.4052 128.132 20.3867 128.157 20.3867L128.132 20.3682C128.132 20.3682 128.106 20.3682 128.081 20.3867C128.081 20.3867 128.081 20.3867 128.106 20.4052ZM122.934 21.4775C122.959 21.4775 122.959 21.459 122.985 21.459C122.985 21.4405 122.959 21.4405 122.959 21.422C122.908 21.4035 122.883 21.422 122.908 21.459C122.883 21.4775 122.908 21.4775 122.934 21.4775ZM38.9508 19.3514L39.0018 19.3514C39.0272 19.3144 39.0018 19.3144 38.9508 19.3144C38.9253 19.3144 38.9253 19.3329 38.8998 19.3329C38.8998 19.3329 38.9253 19.3329 38.9508 19.3514ZM30.4659 18.7968C30.4659 18.7783 30.4404 18.7598 30.4404 18.7598C30.4149 18.7598 30.364 18.7598 30.3385 18.7783C30.3385 18.7968 30.364 18.8152 30.364 18.8152C30.3894 18.8152 30.4149 18.7968 30.4659 18.7968ZM62.622 19.0001C62.6474 19.0001 62.6474 19.0186 62.6729 19.0001L62.6984 18.9816C62.6984 18.9447 62.6474 18.9447 62.622 18.9631C62.5965 18.9631 62.622 18.9816 62.622 19.0001ZM126.628 20.1094C126.603 20.0909 126.603 20.0909 126.577 20.0909C126.552 20.0909 126.552 20.1094 126.526 20.1094C126.552 20.1279 126.552 20.1279 126.577 20.1279C126.577 20.1279 126.603 20.1279 126.628 20.1094ZM65.6796 18.5934C65.6541 18.5934 65.6541 18.5749 65.6286 18.5934C65.5777 18.6119 65.5777 18.6304 65.6286 18.6304C65.6286 18.6304 65.6541 18.6304 65.6796 18.6304C65.6796 18.6119 65.6796 18.6119 65.6796 18.5934ZM99.7467 18.9447C99.7212 18.9447 99.7212 18.9262 99.6957 18.9262C99.6448 18.9447 99.6448 18.9631 99.6957 18.9816L99.7467 18.9816C99.7467 18.9816 99.7467 18.9631 99.7467 18.9447ZM128.336 21.8102L128.31 21.7918L128.31 21.8102L128.336 21.8102ZM73.1453 18.8892L73.1453 18.8522L73.0943 18.8707L73.1453 18.8892ZM128.641 21.5514L128.692 21.5329L128.667 21.5144L128.641 21.5514ZM68.5843 20.5531L68.6098 20.5716L68.6098 20.5531L68.5843 20.5531ZM101.479 19.6287C101.505 19.6287 101.505 19.6287 101.53 19.6102C101.53 19.5917 101.53 19.5732 101.505 19.5732C101.505 19.5732 101.479 19.5732 101.454 19.5917C101.454 19.6102 101.454 19.6102 101.479 19.6287ZM92.5103 19.148L92.4848 19.1295L92.4593 19.148L92.4848 19.1665C92.4848 19.1665 92.4848 19.148 92.5103 19.148ZM100.205 19.148L100.18 19.1295C100.18 19.1295 100.154 19.1295 100.129 19.148L100.154 19.1665C100.18 19.148 100.205 19.148 100.205 19.148ZM78.2923 19.5178L78.2923 19.4808L78.2413 19.4993L78.2923 19.5178ZM110.397 20.4791C110.448 20.4976 110.474 20.4791 110.448 20.4422C110.448 20.4422 110.423 20.4422 110.397 20.4422C110.397 20.4606 110.397 20.4791 110.397 20.4791ZM114.704 19.7766L114.755 19.7581L114.729 19.7396L114.704 19.7766ZM59.2076 19.0741C59.2331 19.0741 59.2331 19.0556 59.2586 19.0556L59.2331 19.0371C59.2331 19.0371 59.2076 19.0556 59.1821 19.0556C59.1821 19.0556 59.1821 19.0741 59.2076 19.0741ZM59.386 19.6842C59.386 19.6657 59.3605 19.6472 59.3605 19.6472C59.335 19.6472 59.3095 19.6657 59.2586 19.6657C59.2586 19.6842 59.284 19.7027 59.284 19.7027C59.3095 19.7027 59.335 19.6842 59.386 19.6842ZM135.241 22.3464L135.266 22.3649L135.292 22.3464L135.266 22.3279C135.266 22.3279 135.266 22.3279 135.241 22.3464ZM122.883 19.869C122.934 19.8875 122.959 19.869 122.934 19.8321C122.934 19.8321 122.908 19.8321 122.883 19.8321C122.857 19.8321 122.883 19.8506 122.883 19.869ZM61.0167 19.0741C61.0422 19.0741 61.0677 19.0741 61.0677 19.0556C61.0677 19.0186 61.0677 19.0186 61.0167 19.0186L60.9912 19.0371C60.9912 19.0556 61.0167 19.0741 61.0167 19.0741ZM82.3437 20.3867L82.3182 20.3682C82.3182 20.3682 82.2927 20.3867 82.2672 20.3867L82.2927 20.4052C82.3182 20.4052 82.3437 20.4052 82.3437 20.3867ZM56.099 19.111C56.099 19.1295 56.099 19.1295 56.099 19.148C56.1245 19.148 56.1245 19.148 56.15 19.148C56.15 19.1295 56.15 19.111 56.15 19.111C56.15 19.111 56.1245 19.111 56.099 19.111ZM91.0324 19.0926C91.0579 19.0926 91.0834 19.0926 91.0834 19.0741C91.0834 19.0741 91.0834 19.0556 91.0579 19.0371C91.0324 19.0371 91.007 19.0371 91.007 19.0556C91.0324 19.0741 91.0324 19.0926 91.0324 19.0926ZM87.032 18.7968L87.032 18.7598L86.9811 18.7783L87.032 18.7968ZM36.734 19.4253L36.734 19.3884L36.6831 19.4068L36.734 19.4253ZM47.4867 19.3329L47.4867 19.3144L47.4357 19.3144L47.4867 19.3329ZM120.36 19.7766C120.386 19.7766 120.386 19.7766 120.411 19.7581L120.386 19.7396C120.386 19.7396 120.36 19.7396 120.36 19.7581C120.335 19.7581 120.36 19.7766 120.36 19.7766ZM119.902 20.0169L119.902 20.0354L119.927 20.0169L119.902 20.0169Z" fill="white"/>
<path d="M57.8317 18.0757C58.1629 18.0388 58.4432 18.0388 58.7235 17.9833C58.7999 17.9648 58.8764 17.9648 58.9528 17.9648C59.3605 17.9833 59.7682 17.9463 60.1758 17.9094C60.2268 17.9094 60.2523 17.9094 60.3032 17.9094C60.3287 17.9094 60.3797 17.9278 60.4052 17.9463C60.4561 18.0018 60.4052 18.0203 60.3542 18.0388C60.3287 18.0573 60.2778 18.0757 60.2778 18.0942C60.2778 18.1497 60.3542 18.1497 60.4052 18.1682C60.5326 18.1867 60.6855 18.2052 60.8383 18.1867C61.1696 18.1497 61.4753 18.1682 61.8066 18.1682C61.8575 18.1682 61.883 18.1682 61.934 18.1867C61.9595 18.2052 61.9849 18.2236 62.0104 18.2606L61.9849 18.2976C61.7301 18.3715 61.4499 18.427 61.1696 18.3715C60.9403 18.3346 60.7364 18.3346 60.5071 18.3346C60.0739 18.3346 59.6153 18.3161 59.1821 18.3161C59.1821 18.3161 59.1566 18.2791 59.1821 18.2791C59.3095 18.2236 59.4624 18.2791 59.5898 18.2421C59.6408 18.2236 59.6662 18.2052 59.6408 18.1867C59.6408 18.1682 59.6153 18.1682 59.5898 18.1682C59.284 18.1497 58.9783 18.1497 58.6725 18.1497C58.3668 18.0942 58.112 18.0942 57.8317 18.0757Z" fill="white"/>
<path d="M51.8693 18.4825C51.3597 18.4825 50.8501 18.4825 50.3405 18.4825C50.1366 18.4825 49.9328 18.501 49.7544 18.5749C49.6525 18.6119 49.5506 18.6119 49.4487 18.5934C49.2958 18.5749 49.1939 18.5194 49.2193 18.4825C49.2703 18.427 49.3467 18.4085 49.4232 18.4085C49.6525 18.4085 49.8818 18.39 50.0857 18.4085C50.366 18.427 50.6462 18.427 50.952 18.4085C51.0794 18.4085 51.2068 18.39 51.3087 18.4085C51.64 18.427 51.9457 18.4085 52.277 18.3715C52.7101 18.3346 53.1178 18.3531 53.551 18.3531C53.6019 18.3531 53.6274 18.3715 53.6784 18.3715C53.7039 18.3715 53.7039 18.39 53.7293 18.4085C53.7548 18.4455 53.7293 18.4825 53.7039 18.4825C53.5765 18.501 53.4236 18.5194 53.2707 18.5194C52.914 18.4825 52.5318 18.501 52.1751 18.5194C52.0731 18.4825 51.9712 18.4825 51.8693 18.4825Z" fill="white"/>
<path d="M53.2962 18.0942C53.2707 18.0942 53.2707 18.1127 53.2452 18.1127C53.0159 18.1312 52.7611 18.1497 52.5318 18.1867C52.4808 18.1867 52.4553 18.2052 52.4044 18.2052C51.8693 18.2052 51.3597 18.2421 50.8246 18.2421C50.7227 18.2421 50.6208 18.2236 50.5443 18.1682C50.5443 18.1682 50.5188 18.1497 50.5443 18.1312C50.5443 18.1127 50.5698 18.1127 50.5698 18.0942C50.5953 18.0757 50.5953 18.0757 50.6208 18.0757C51.4871 18.0388 52.3534 18.0018 53.2452 18.0388C53.2707 18.0388 53.2707 18.0573 53.2962 18.0573C53.2707 18.0757 53.2707 18.0757 53.2962 18.0942Z" fill="white"/>
<path d="M101.454 18.6304C101.403 18.6304 101.275 18.6304 101.174 18.6119C101.148 18.6119 101.123 18.5749 101.123 18.5379C101.123 18.5194 101.174 18.4825 101.199 18.4825C101.403 18.4825 101.607 18.4825 101.785 18.501C101.811 18.501 101.836 18.5379 101.836 18.5564C101.836 18.5749 101.785 18.6119 101.76 18.6119C101.658 18.6304 101.581 18.6304 101.454 18.6304Z" fill="white"/>
<path d="M56.4557 18.1127C56.3793 18.1127 56.3029 18.1127 56.2264 18.1127C56.2009 18.1127 56.1755 18.0942 56.15 18.0757C56.15 18.0573 56.1755 18.0573 56.1755 18.0388C56.4048 17.9648 56.6596 17.9463 56.9399 17.9648C56.9653 17.9648 56.9908 17.9833 56.9908 17.9833C56.9908 18.0018 56.9653 18.0388 56.9399 18.0388C56.787 18.0757 56.6341 18.0942 56.4557 18.1127Z" fill="white"/>
<path d="M12.8335 18.7043C12.6807 18.7598 12.5533 18.7413 12.4259 18.7413C12.1711 18.7228 11.8908 18.7413 11.636 18.6858C11.6105 18.6858 11.6105 18.6673 11.6105 18.6489C11.6105 18.6304 11.636 18.6119 11.636 18.6119C11.8908 18.6304 12.1456 18.6489 12.4259 18.6304C12.5787 18.6304 12.6807 18.6489 12.8335 18.7043Z" fill="white"/>
<path d="M54.7231 18.0388C54.6976 18.0573 54.6976 18.0757 54.6721 18.0942C54.5447 18.1867 54.3918 18.2052 54.2135 18.1682C54.1625 18.1497 54.0861 18.0942 54.1116 18.0757C54.137 18.0573 54.1625 18.0203 54.188 18.0203C54.3154 17.9833 54.4683 17.9463 54.5957 17.9648C54.6466 17.9648 54.6976 18.0203 54.7231 18.0388Z" fill="white"/>
<path d="M99.1861 18.5564C98.9058 18.5379 98.7784 18.6119 98.6255 18.5379C98.6001 18.5379 98.6001 18.5194 98.6001 18.501C98.6001 18.4825 98.6001 18.4825 98.6255 18.464C98.6255 18.4455 98.651 18.4455 98.6765 18.4455C98.9568 18.4455 99.2371 18.4455 99.5174 18.464C99.5428 18.464 99.5683 18.501 99.5938 18.5194C99.5683 18.5194 99.5683 18.5379 99.5428 18.5379C99.3645 18.5564 99.2116 18.5564 99.1861 18.5564Z" fill="white"/>
<path d="M118.551 19.0926C118.78 19.0926 118.984 19.0926 119.214 19.0926C119.341 19.0926 119.443 19.1295 119.519 19.2035C119.545 19.222 119.519 19.259 119.494 19.2774C119.468 19.2959 119.417 19.3144 119.392 19.3144C119.163 19.222 118.908 19.222 118.653 19.148C118.628 19.1295 118.602 19.111 118.551 19.0926Z" fill="white"/>
<path d="M66.444 17.9463C66.393 17.9278 66.2911 17.9094 66.1892 17.8909C66.1637 17.8909 66.1637 17.8724 66.1637 17.8539C66.1892 17.8354 66.1892 17.7984 66.2147 17.7799C66.3421 17.743 66.444 17.743 66.5459 17.7984C66.5714 17.8169 66.5969 17.8354 66.5969 17.8724C66.5969 17.8909 66.5459 17.9094 66.5204 17.9094C66.5459 17.9463 66.5204 17.9463 66.444 17.9463Z" fill="white"/>
<path d="M141.764 22.7901C142.018 22.7716 142.222 22.8086 142.426 22.864C142.171 22.901 142.171 22.901 141.764 22.7901Z" fill="white"/>
<path d="M71.2598 18.0573C71.4891 18.0573 71.6929 18.0388 71.8968 18.0388C71.9477 18.0388 71.9732 18.0573 71.9732 18.0942C71.9732 18.1127 71.9477 18.1127 71.9222 18.1127C71.6929 18.1312 71.4891 18.1127 71.2598 18.0573Z" fill="white"/>
<path d="M104.817 18.2606C105.123 18.2052 105.327 18.1867 105.531 18.2421C105.276 18.3161 105.276 18.3161 104.817 18.2606Z" fill="white"/>
<path d="M107.009 18.3346C106.703 18.39 106.703 18.39 106.448 18.3531C106.448 18.3531 106.423 18.3346 106.448 18.3161C106.448 18.2976 106.473 18.2976 106.499 18.2976C106.652 18.2606 106.83 18.2976 107.009 18.3346Z" fill="white"/>
<path d="M57.5259 18.3715C57.4749 18.3715 57.3985 18.3531 57.3475 18.3531C57.3221 18.3531 57.2966 18.3346 57.2966 18.3346C57.2966 18.3161 57.3221 18.2791 57.3475 18.2606C57.4495 18.2052 57.5769 18.2236 57.7043 18.2421C57.7297 18.2421 57.7807 18.2791 57.7807 18.2976C57.7807 18.3161 57.7552 18.3531 57.7043 18.3531C57.6278 18.3715 57.5769 18.3715 57.5259 18.3715Z" fill="white"/>
<path d="M71.1833 17.706C71.3872 17.7245 71.591 17.6875 71.7694 17.7799C71.4636 17.8539 71.4636 17.8539 71.1833 17.706Z" fill="white"/>
<path d="M69.629 18.0942C69.8074 18.0573 69.8329 18.0388 69.8838 18.0388C69.9348 18.0388 70.0112 18.0388 70.0622 18.0388C70.1641 18.0388 70.266 18.0573 70.3934 18.0942C70.1896 18.0942 69.9857 18.0942 69.629 18.0942Z" fill="white"/>
<path d="M55.8952 18.3715C56.1245 18.2606 56.2519 18.2421 56.4048 18.2976L56.4048 18.3346C56.2519 18.39 56.0735 18.3346 55.8952 18.3715Z" fill="white"/>
<path d="M118.22 19.222C117.94 19.259 117.71 19.1665 117.43 19.1665C117.404 19.1665 117.379 19.1665 117.379 19.1665L117.379 19.148C117.659 19.111 117.94 19.185 118.22 19.222Z" fill="white"/>
<path d="M92.9435 18.1312C92.867 18.1312 92.7906 18.0942 92.816 18.0757C92.8415 18.0573 92.867 18.0203 92.8925 18.0203C92.9435 18.0018 93.0199 18.0018 93.0709 18.0018C93.0963 18.0018 93.1218 18.0018 93.1218 18.0203C93.1473 18.0203 93.1473 18.0388 93.1728 18.0573C93.1983 18.0942 93.1728 18.1127 93.1218 18.1312C93.0963 18.1312 93.0963 18.1497 93.0709 18.1497C93.0199 18.1312 92.9944 18.1312 92.9435 18.1312Z" fill="white"/>
<path d="M63.6921 18.1682C63.5647 18.2236 63.4373 18.2421 63.3099 18.2421C63.3099 18.2421 63.2844 18.2236 63.2844 18.2052C63.2844 18.1867 63.2844 18.1682 63.3099 18.1682C63.4373 18.1497 63.5647 18.1312 63.6921 18.1682Z" fill="white"/>
<path d="M90.4973 17.706C90.6757 17.6875 90.8286 17.669 90.9815 17.706C90.956 17.7245 90.905 17.743 90.8795 17.743C90.7521 17.743 90.6247 17.7615 90.4973 17.706Z" fill="white"/>
<path d="M116.258 19.148C116.232 19.1295 116.207 19.1295 116.181 19.111C116.207 19.0926 116.232 19.0741 116.258 19.0556C116.334 19.0371 116.411 19.0926 116.36 19.111C116.334 19.148 116.309 19.148 116.258 19.148Z" fill="white"/>
<path d="M110.346 18.7783C110.194 18.8152 110.066 18.8892 109.888 18.8522C109.862 18.8522 109.862 18.8337 109.862 18.8152C109.862 18.7968 109.862 18.7783 109.888 18.7783C110.041 18.7413 110.194 18.7968 110.346 18.7783Z" fill="white"/>
<path d="M103.492 18.2976C103.441 18.2976 103.416 18.2791 103.416 18.2421C103.416 18.2236 103.441 18.2236 103.467 18.2236C103.492 18.2052 103.543 18.2052 103.569 18.2052C103.594 18.2052 103.645 18.2236 103.671 18.2421C103.645 18.2606 103.62 18.2976 103.594 18.2976C103.569 18.2976 103.518 18.2976 103.492 18.2976Z" fill="white"/>
<path d="M73.4765 18.464C73.4511 18.4455 73.4256 18.4455 73.4001 18.427C73.4256 18.427 73.4256 18.4085 73.4511 18.4085C73.4765 18.4085 73.5275 18.4085 73.553 18.4085C73.6039 18.4085 73.6294 18.427 73.6039 18.4455C73.6039 18.4455 73.5785 18.464 73.553 18.464C73.553 18.464 73.5275 18.464 73.4765 18.464Z" fill="white"/>
<path d="M48.2511 18.5564C48.2256 18.5379 48.1747 18.5379 48.1492 18.5194C48.1237 18.501 48.1747 18.464 48.2511 18.464C48.2766 18.464 48.3021 18.464 48.3021 18.464C48.3275 18.4825 48.353 18.501 48.3785 18.5194C48.353 18.5379 48.3275 18.5379 48.2766 18.5564C48.2766 18.5564 48.2766 18.5564 48.2511 18.5564Z" fill="white"/>
<path d="M63.259 17.9833C63.1316 17.9833 63.0806 17.9648 63.1316 17.9463C63.157 17.9463 63.208 17.9463 63.2335 17.9463C63.259 17.9463 63.2844 17.9648 63.3099 17.9833C63.3099 17.9833 63.2844 17.9833 63.259 17.9833Z" fill="white"/>
<path d="M85.2484 18.427C85.2229 18.4455 85.172 18.4455 85.1465 18.4455C85.0955 18.4455 85.0701 18.4085 85.0955 18.39C85.121 18.3715 85.172 18.3531 85.1975 18.3715C85.2229 18.3715 85.2229 18.4085 85.2484 18.427Z" fill="white"/>
<path d="M92.4848 17.706C92.4084 17.706 92.3829 17.7245 92.3574 17.7245C92.3319 17.7245 92.3064 17.7245 92.281 17.706C92.3064 17.706 92.3064 17.706 92.3319 17.706C92.3829 17.706 92.4084 17.706 92.4848 17.706Z" fill="white"/>
<path d="M71.1833 17.706C71.1069 17.743 71.005 17.7799 70.9285 17.7984C70.903 17.7984 70.8776 17.7799 70.8521 17.7614L70.8776 17.7245C70.9795 17.7245 71.0814 17.7245 71.1833 17.706Z" fill="white"/>
<path d="M81.9869 18.4825C82.0379 18.4455 82.0634 18.4085 82.1143 18.39C82.1398 18.3715 82.1908 18.3715 82.2163 18.39C82.2417 18.4085 82.2672 18.4455 82.2672 18.464C82.2672 18.501 82.2417 18.5564 82.2417 18.5934L82.2672 18.5749C82.1653 18.5379 82.0889 18.501 81.9869 18.4825Z" fill="white"/>
<path d="M75.1837 17.6875C75.2092 17.706 75.2347 17.7245 75.2602 17.743C75.2347 17.7614 75.2092 17.7799 75.1837 17.7799C75.1073 17.7799 75.0563 17.7245 75.0818 17.706C75.1073 17.706 75.1328 17.706 75.1837 17.6875Z" fill="white"/>
<path d="M148.924 16.0606C148.873 16.0606 148.847 16.0421 148.847 16.0236C148.847 16.0051 148.924 16.0051 148.949 16.0051C148.975 16.0051 149 16.0236 149 16.0236C149 16.0421 148.975 16.0606 148.924 16.0606Z" fill="white"/>
<path d="M64.2782 17.8909C64.2782 17.8724 64.2782 17.8724 64.3037 17.8539C64.3291 17.8539 64.3291 17.8539 64.3546 17.8539C64.3546 17.8539 64.3801 17.8724 64.3801 17.8909C64.3546 17.8909 64.3546 17.9094 64.3291 17.9094C64.3291 17.9094 64.3037 17.9094 64.2782 17.8909Z" fill="white"/>
<path d="M131.113 20.3497C131.138 20.3497 131.164 20.3312 131.215 20.3312C131.215 20.3312 131.24 20.3497 131.24 20.3682C131.215 20.3682 131.189 20.3867 131.138 20.3867C131.113 20.3867 131.113 20.3682 131.113 20.3497Z" fill="white"/>
<path d="M105.403 18.0203C105.378 18.0203 105.352 18.0203 105.352 18.0018C105.352 17.9648 105.378 17.9648 105.429 17.9648L105.454 17.9833C105.454 18.0018 105.429 18.0018 105.403 18.0203Z" fill="white"/>
<path d="M75.2602 18.0942L75.2347 18.0757C75.2602 18.0573 75.2856 18.0573 75.3111 18.0942C75.3111 18.0757 75.2856 18.0942 75.2602 18.0942Z" fill="white"/>
<path d="M76.1774 17.8169C76.1774 17.7984 76.152 17.7984 76.152 17.7799C76.152 17.7614 76.1774 17.7614 76.2029 17.7614C76.2539 17.7614 76.2539 17.7984 76.2284 17.8169C76.2029 17.8169 76.1774 17.8169 76.1774 17.8169Z" fill="white"/>
<path d="M77.2986 17.8169C77.2731 17.8169 77.2731 17.8354 77.2476 17.8354C77.2221 17.8354 77.2221 17.8169 77.1967 17.8169C77.2221 17.8169 77.2221 17.7984 77.2476 17.7984C77.2731 17.7799 77.2731 17.7984 77.2986 17.8169Z" fill="white"/>
<path d="M143.369 22.975C143.343 22.975 143.343 22.9565 143.318 22.9565L143.343 22.938C143.394 22.938 143.42 22.938 143.394 22.975C143.42 22.975 143.394 22.975 143.369 22.975Z" fill="white"/>
<path d="M88.6883 18.4085C88.6883 18.39 88.6628 18.39 88.6628 18.3715L88.6883 18.3531C88.7392 18.3531 88.7392 18.3715 88.7137 18.4085C88.7392 18.4085 88.7137 18.4085 88.6883 18.4085Z" fill="white"/>
<path d="M60.9403 18.0203C60.9403 18.0018 60.9148 18.0018 60.9148 17.9833C60.9403 17.9833 60.9403 17.9648 60.9657 17.9648C61.0167 17.9648 61.0422 17.9833 61.0167 18.0018C60.9912 18.0203 60.9657 18.0203 60.9403 18.0203Z" fill="white"/>
<path d="M100.358 18.5564C100.333 18.5379 100.307 18.5194 100.282 18.5194C100.307 18.5194 100.307 18.501 100.333 18.501C100.358 18.501 100.409 18.501 100.409 18.5194C100.435 18.5379 100.384 18.5564 100.358 18.5564Z" fill="white"/>
<path d="M74.2155 17.7799C74.1645 17.7614 74.139 17.743 74.1645 17.7245C74.19 17.706 74.241 17.706 74.2664 17.706L74.2919 17.743C74.2664 17.7614 74.2409 17.7614 74.2155 17.7799Z" fill="white"/>
<path d="M144.617 23.0304L144.643 23.0489L144.617 23.0489L144.617 23.0304Z" fill="white"/>
<path d="M130.043 20.7749C130.094 20.7564 130.145 20.7195 130.196 20.701C130.221 20.701 130.247 20.701 130.247 20.701C130.272 20.7195 130.272 20.7565 130.221 20.7565C130.145 20.7749 130.094 20.7749 130.043 20.7749Z" fill="white"/>
<path d="M10.6422 18.6119C10.6168 18.6119 10.6168 18.6304 10.5913 18.6304C10.5403 18.6119 10.5403 18.5934 10.5913 18.5934C10.5913 18.5934 10.6168 18.6119 10.6422 18.6119Z" fill="white"/>
<path d="M72.865 17.7245C72.8905 17.7245 72.8905 17.706 72.916 17.706C72.9415 17.706 72.9415 17.7245 72.9669 17.7245C72.9415 17.7245 72.9415 17.743 72.916 17.743C72.8905 17.743 72.865 17.7245 72.865 17.7245Z" fill="white"/>
<path d="M68.4569 18.5194L68.4824 18.501L68.5079 18.5194L68.4824 18.5379L68.4569 18.5194Z" fill="white"/>
<path d="M113.965 18.6119L113.99 18.5934L114.016 18.6119L113.965 18.6119Z" fill="white"/>
<path d="M118.22 19.222L118.22 19.185C118.22 19.2035 118.194 19.222 118.22 19.222Z" fill="white"/>
</svg>
