<svg width="14" height="12" viewBox="0 0 14 12" fill="none" xmlns="http://www.w3.org/2000/svg">
<path d="M13.6666 1.86681C13.1655 2.0842 12.6355 2.22792 12.0933 2.29347C12.6654 1.95169 13.0941 1.41399 13.2999 0.78014C12.7623 1.10018 12.1738 1.32567 11.5599 1.44681C11.1496 1.00185 10.6032 0.705671 10.0065 0.604707C9.40969 0.503744 8.79628 0.603712 8.26245 0.888933C7.72861 1.17415 7.30454 1.62849 7.05675 2.1807C6.80895 2.7329 6.75145 3.35173 6.89325 3.94014C5.8062 3.88516 4.74288 3.60211 3.77236 3.10938C2.80183 2.61665 1.94582 1.92527 1.25992 1.08014C1.01934 1.50025 0.892931 1.97602 0.893252 2.46014C0.892399 2.90973 1.00273 3.35255 1.21442 3.74918C1.42611 4.14581 1.7326 4.48395 2.10659 4.73347C1.6719 4.72165 1.24651 4.60501 0.866585 4.39347V4.42681C0.869843 5.05673 1.09058 5.6662 1.49146 6.15212C1.89234 6.63803 2.44876 6.97057 3.06659 7.09347C2.82876 7.16585 2.58184 7.20401 2.33325 7.20681C2.16118 7.2048 1.98953 7.18919 1.81992 7.16014C1.99586 7.70201 2.33633 8.17557 2.79397 8.51491C3.2516 8.85425 3.80364 9.04251 4.37325 9.05347C3.41139 9.81032 2.22384 10.2234 0.999919 10.2268C0.777075 10.2275 0.554409 10.2142 0.333252 10.1868C1.58287 10.9936 3.03913 11.422 4.52659 11.4201C5.55305 11.4308 6.57134 11.2368 7.522 10.8495C8.47265 10.4622 9.3366 9.8894 10.0634 9.16447C10.7902 8.43955 11.3652 7.57707 11.755 6.62741C12.1447 5.67775 12.3413 4.65996 12.3333 3.63347C12.3333 3.52014 12.3333 3.40014 12.3333 3.28014C12.8564 2.89001 13.3076 2.41176 13.6666 1.86681Z" fill="white"/>
</svg>
