<svg width="16" height="12" viewBox="0 0 16 12" fill="none" xmlns="http://www.w3.org/2000/svg">
<path d="M15.3334 4.47332C15.3664 3.51909 15.1577 2.572 14.7268 1.71999C14.4344 1.37039 14.0286 1.13446 13.5801 1.05332C11.7251 0.885006 9.86245 0.816019 8.0001 0.846656C6.14453 0.814628 4.28857 0.881389 2.4401 1.04666C2.07465 1.11313 1.73644 1.28455 1.46677 1.53999C0.866766 2.09332 0.800099 3.03999 0.733433 3.83999C0.636707 5.27837 0.636707 6.72161 0.733433 8.15999C0.752719 8.61026 0.819762 9.05721 0.933433 9.49332C1.01382 9.83003 1.17645 10.1416 1.40677 10.4C1.67828 10.669 2.02436 10.8501 2.4001 10.92C3.83738 11.0974 5.28558 11.1709 6.73343 11.14C9.06677 11.1733 11.1134 11.14 13.5334 10.9533C13.9184 10.8878 14.2742 10.7064 14.5534 10.4333C14.7401 10.2466 14.8795 10.0181 14.9601 9.76666C15.1985 9.03507 15.3156 8.2694 15.3068 7.49999C15.3334 7.12666 15.3334 4.87332 15.3334 4.47332ZM6.49343 7.89999V3.77332L10.4401 5.84666C9.33343 6.45999 7.87343 7.15332 6.49343 7.89999Z" fill="white"/>
</svg>
